<?xml version="1.0" encoding="utf-8"?>
<!-- Generator: Adobe Illustrator 24.3.0, SVG Export Plug-In . SVG Version: 6.00 Build 0)  -->
<svg version="1.1" xmlns="http://www.w3.org/2000/svg" xmlns:xlink="http://www.w3.org/1999/xlink" x="0px" y="0px"
	 viewBox="0 0 252 144" style="enable-background:new 0 0 252 144;" xml:space="preserve">
<style type="text/css">
	.st0{fill:#496BB3;}
	.st1{fill:#565E71;}
</style>
<g id="Layer_2">
</g>
<g id="Layer_1">
	<g>
		<g>
			<g>
				<path class="st0" d="M135.2,70.5c-0.7,0-1.3-0.1-1.8-0.3c-0.5-0.2-0.9-0.5-1.2-0.8c-0.3-0.3-0.5-0.7-0.7-1.1
					c-0.1-0.4-0.2-0.8-0.2-1.3c0-0.5,0.1-1,0.3-1.5c0.2-0.5,0.4-0.9,0.7-1.3c0.3-0.4,0.7-0.7,1.1-0.9c0.4-0.2,0.9-0.3,1.5-0.3
					c0.5,0,1,0.1,1.4,0.2c0.4,0.2,0.8,0.4,1,0.7c0.3,0.3,0.5,0.7,0.7,1.1c0.2,0.4,0.2,0.9,0.2,1.4v3.8c0,0.7-0.1,1.3-0.3,1.8
					c-0.2,0.5-0.5,0.9-0.9,1.2c-0.4,0.3-0.9,0.5-1.4,0.7c-0.5,0.1-1.1,0.2-1.8,0.2c-0.2,0-0.5,0-0.8,0c-0.3,0-0.6-0.1-1-0.1l0.1-1.9
					c0.3,0,0.6,0.1,1,0.1c0.3,0,0.6,0,0.8,0c0.3,0,0.6,0,0.9-0.1c0.3,0,0.5-0.1,0.8-0.3c0.2-0.1,0.4-0.3,0.5-0.5
					c0.1-0.2,0.2-0.5,0.2-0.9H135.2z M136.3,68.5v-1.5c0-0.7-0.1-1.2-0.4-1.5c-0.3-0.3-0.6-0.5-1.1-0.5c-0.2,0-0.4,0-0.6,0.1
					c-0.2,0.1-0.4,0.2-0.5,0.4c-0.2,0.2-0.3,0.3-0.4,0.6c-0.1,0.2-0.1,0.5-0.1,0.7c0,0.3,0.1,0.6,0.2,0.8c0.1,0.2,0.2,0.4,0.4,0.5
					c0.2,0.1,0.4,0.2,0.6,0.3c0.2,0.1,0.5,0.1,0.7,0.1H136.3z"/>
				<path class="st0" d="M111.5,86.9c-1.6,0-3-1.2-3-2.9c0-1.4,0.9-2.2,1.8-2.8c-0.5-0.6-0.9-1.4-0.9-2.2c0-1.3,1.1-2.4,2.6-2.4
					c1.4,0,2.5,1,2.5,2.4c0,1.3-0.9,2-1.9,2.6c0.4,0.6,0.9,1.2,1.4,1.8c0.3-0.4,0.5-0.8,0.6-1.1c0.1-0.1,0.1-0.2,0.3-0.1l1,0.4
					c0.1,0.1,0.2,0.1,0.1,0.3c-0.2,0.6-0.6,1.2-0.9,1.8l1.4,1.8c0.1,0.1,0,0.3-0.1,0.3h-1.4c-0.1,0-0.2,0-0.3-0.1l-0.6-0.8
					C113.3,86.5,112.5,86.9,111.5,86.9z M111.6,85.5c0.6,0,1-0.3,1.4-0.8l-1.8-2.3c-0.7,0.4-1.2,0.9-1.2,1.6
					C110,84.9,110.7,85.5,111.6,85.5z M111.6,80.5c0.8-0.4,1.3-0.8,1.3-1.5c0-0.6-0.3-1-1-1c-0.6,0-1.1,0.5-1.1,1
					C110.9,79.5,111.2,80,111.6,80.5z"/>
				<g>
					<path class="st1" d="M90.8,61c0-0.3,0.1-0.5,0.3-0.7c0.2-0.2,0.4-0.3,0.7-0.3c0.3,0,0.5,0.1,0.7,0.3c0.2,0.2,0.3,0.4,0.3,0.7
						c0,0.3-0.1,0.5-0.3,0.7c-0.2,0.2-0.4,0.3-0.7,0.3c-0.3,0-0.5-0.1-0.7-0.3C90.9,61.5,90.8,61.3,90.8,61z"/>
					<path class="st1" d="M92.1,58.8c0-0.3,0.1-0.5,0.3-0.7c0.2-0.2,0.4-0.3,0.7-0.3c0.3,0,0.5,0.1,0.7,0.3c0.2,0.2,0.3,0.4,0.3,0.7
						c0,0.3-0.1,0.5-0.3,0.7c-0.2,0.2-0.4,0.3-0.7,0.3c-0.3,0-0.5-0.1-0.7-0.3C92.2,59.3,92.1,59.1,92.1,58.8z"/>
					<path class="st1" d="M93.5,61c0-0.3,0.1-0.5,0.3-0.7c0.2-0.2,0.4-0.3,0.7-0.3c0.3,0,0.5,0.1,0.7,0.3c0.2,0.2,0.3,0.4,0.3,0.7
						c0,0.3-0.1,0.5-0.3,0.7C95,61.9,94.8,62,94.5,62c-0.3,0-0.5-0.1-0.7-0.3C93.5,61.5,93.5,61.3,93.5,61z"/>
					<path class="st1" d="M144.7,61c0-0.3,0.1-0.5,0.3-0.7c0.2-0.2,0.4-0.3,0.7-0.3c0.3,0,0.5,0.1,0.7,0.3c0.2,0.2,0.3,0.4,0.3,0.7
						c0,0.3-0.1,0.5-0.3,0.7c-0.2,0.2-0.4,0.3-0.7,0.3c-0.3,0-0.5-0.1-0.7-0.3C144.8,61.5,144.7,61.3,144.7,61z"/>
					<path class="st1" d="M147.4,61c0-0.3,0.1-0.5,0.3-0.7c0.2-0.2,0.4-0.3,0.7-0.3c0.3,0,0.5,0.1,0.7,0.3c0.2,0.2,0.3,0.4,0.3,0.7
						c0,0.3-0.1,0.5-0.3,0.7c-0.2,0.2-0.4,0.3-0.7,0.3c-0.3,0-0.5-0.1-0.7-0.3C147.5,61.5,147.4,61.3,147.4,61z"/>
				</g>
			</g>
			<g>
				<g>
					<g>
						<g>
							<path class="st1" d="M48.3,86.8c-0.2,0-0.2-0.1-0.2-0.2l3.4-9.6c0-0.1,0.1-0.2,0.2-0.2h1.6c0.1,0,0.2,0.1,0.2,0.2l3.4,9.6
								c0,0.2,0,0.2-0.2,0.2h-1.4c-0.1,0-0.2-0.1-0.2-0.2l-0.7-2.1h-3.8l-0.7,2.1c0,0.1-0.1,0.2-0.2,0.2H48.3z M51,83h2.9l-1.4-4.4
								h-0.1L51,83z"/>
						</g>
					</g>
					<g>
						<g>
							<path class="st1" d="M59.9,86.8c-0.1,0-0.2-0.1-0.2-0.2V77c0-0.1,0.1-0.2,0.2-0.2h1.5c0.1,0,0.2,0,0.2,0.2l1.7,3.2
								c0.4,0.7,1,2,1.2,2.5h0.1c0.2-0.5,0.8-1.8,1.2-2.5l1.7-3.2c0.1-0.1,0.1-0.2,0.2-0.2h1.5c0.1,0,0.2,0.1,0.2,0.2v9.6
								c0,0.1-0.1,0.2-0.2,0.2h-1.3c-0.1,0-0.2-0.1-0.2-0.2v-2.8c0-1.3,0.1-3,0.1-4.4l0,0c-0.3,0.7-0.8,1.7-1.3,2.6l-1.2,2.4
								c0,0.1-0.1,0.2-0.2,0.2H64c-0.1,0-0.2-0.1-0.2-0.2l-1.2-2.4c-0.5-0.9-0.9-1.9-1.3-2.6l0,0c0.1,1.4,0.1,3.1,0.1,4.4v2.8
								c0,0.1-0.1,0.2-0.2,0.2H59.9z"/>
						</g>
					</g>
					<g>
						<g>
							<path class="st1" d="M72.4,86.8c-0.2,0-0.2-0.1-0.2-0.2l3.4-9.6c0-0.1,0.1-0.2,0.2-0.2h1.6c0.1,0,0.2,0.1,0.2,0.2l3.4,9.6
								c0,0.2,0,0.2-0.2,0.2h-1.4c-0.1,0-0.2-0.1-0.2-0.2l-0.7-2.1h-3.8L74,86.6c0,0.1-0.1,0.2-0.2,0.2H72.4z M75.2,83h2.9l-1.4-4.4
								h-0.1L75.2,83z"/>
						</g>
					</g>
					<g>
						<g>
							<path class="st1" d="M89.4,86.8c-0.1,0-0.2,0-0.2-0.1l-2.5-3.5h-1.2v3.4c0,0.1-0.1,0.2-0.2,0.2H84c-0.1,0-0.2-0.1-0.2-0.2V77
								c0-0.1,0.1-0.2,0.2-0.2h3.3c2.3,0,3.6,1.2,3.6,3.2c0,1.5-0.9,2.6-2.3,3l2.6,3.6c0.1,0.2,0,0.3-0.1,0.3H89.4z M85.5,78.3v3.3
								h1.8c1.3,0,1.9-0.5,1.9-1.6c0-1.1-0.6-1.7-1.9-1.7H85.5z"/>
						</g>
					</g>
					<g>
						<g>
							<path class="st1" d="M93.4,86.8c-0.2,0-0.2-0.1-0.2-0.2l3.4-9.6c0-0.1,0.1-0.2,0.2-0.2h1.6c0.1,0,0.2,0.1,0.2,0.2l3.4,9.6
								c0,0.2,0,0.2-0.2,0.2h-1.4c-0.1,0-0.2-0.1-0.2-0.2l-0.7-2.1h-3.8L95,86.6c0,0.1-0.1,0.2-0.2,0.2H93.4z M96.2,83h2.9l-1.4-4.4
								h-0.1L96.2,83z"/>
						</g>
					</g>
					<g>
						<g>
							<path class="st1" d="M127.6,76.8c2.2,0,3.5,1.3,3.5,3.4c0,2.2-1.3,3.4-3.5,3.4h-2.1v3c0,0.1-0.1,0.2-0.2,0.2h-1.3
								c-0.1,0-0.2-0.1-0.2-0.2V77c0-0.1,0.1-0.2,0.2-0.2H127.6z M127.4,82c1.4,0,2-0.6,2-1.9c0-1.3-0.6-1.8-2-1.8h-1.9V82H127.4z"
								/>
						</g>
					</g>
					<g>
						<g>
							<path class="st1" d="M132.9,86.8c-0.2,0-0.2-0.1-0.2-0.2l3.4-9.6c0-0.1,0.1-0.2,0.2-0.2h1.6c0.1,0,0.2,0.1,0.2,0.2l3.4,9.6
								c0,0.2,0,0.2-0.2,0.2h-1.4c-0.1,0-0.2-0.1-0.2-0.2l-0.7-2.1h-3.8l-0.7,2.1c0,0.1-0.1,0.2-0.2,0.2H132.9z M135.6,83h2.9
								l-1.4-4.4h-0.1L135.6,83z"/>
						</g>
					</g>
					<g>
						<g>
							<path class="st1" d="M149.9,86.8c-0.1,0-0.2,0-0.2-0.1l-2.5-3.5H146v3.4c0,0.1-0.1,0.2-0.2,0.2h-1.3c-0.1,0-0.2-0.1-0.2-0.2
								V77c0-0.1,0.1-0.2,0.2-0.2h3.3c2.3,0,3.6,1.2,3.6,3.2c0,1.5-0.9,2.6-2.3,3l2.6,3.6c0.1,0.2,0,0.3-0.1,0.3H149.9z M146,78.3
								v3.3h1.8c1.3,0,1.9-0.5,1.9-1.6c0-1.1-0.6-1.7-1.9-1.7H146z"/>
						</g>
					</g>
					<g>
						<g>
							<path class="st1" d="M161.2,76.8c0.1,0,0.2,0.1,0.2,0.2v1.1c0,0.1-0.1,0.2-0.2,0.2h-2.8v8.3c0,0.1-0.1,0.2-0.2,0.2h-1.3
								c-0.1,0-0.2-0.1-0.2-0.2v-8.3h-2.8c-0.1,0-0.2-0.1-0.2-0.2V77c0-0.1,0.1-0.2,0.2-0.2H161.2z"/>
						</g>
					</g>
					<g>
						<g>
							<path class="st1" d="M164.5,86.8c-0.1,0-0.2-0.1-0.2-0.2V77c0-0.1,0.1-0.2,0.2-0.2h1.4c0.1,0,0.2,0.1,0.3,0.1l2.7,4.8
								c0.5,0.8,1,1.8,1.4,2.5l0,0c-0.1-1.2-0.1-2.6-0.1-3.8V77c0-0.1,0.1-0.2,0.2-0.2h1.3c0.1,0,0.2,0.1,0.2,0.2v9.6
								c0,0.1-0.1,0.2-0.2,0.2h-1.4c-0.1,0-0.2,0-0.2-0.1l-2.6-4.4c-0.5-0.8-1.1-1.9-1.5-2.8l0,0c0.1,1.2,0.1,2.7,0.1,3.9v3.2
								c0,0.1-0.1,0.2-0.2,0.2H164.5z"/>
						</g>
					</g>
					<g>
						<g>
							<path class="st1" d="M177.4,85.2h4.5c0.1,0,0.2,0.1,0.2,0.2v1.1c0,0.1-0.1,0.2-0.2,0.2h-6c-0.1,0-0.2-0.1-0.2-0.2V77
								c0-0.1,0.1-0.2,0.2-0.2h5.8c0.1,0,0.2,0.1,0.2,0.2v1.1c0,0.1-0.1,0.2-0.2,0.2h-4.3v2.6h3.9c0.1,0,0.2,0.1,0.2,0.2v1.1
								c0,0.1-0.1,0.2-0.2,0.2h-3.9V85.2z"/>
						</g>
					</g>
					<g>
						<g>
							<path class="st1" d="M191.1,86.8c-0.1,0-0.2,0-0.2-0.1l-2.5-3.5h-1.2v3.4c0,0.1-0.1,0.2-0.2,0.2h-1.3c-0.1,0-0.2-0.1-0.2-0.2
								V77c0-0.1,0.1-0.2,0.2-0.2h3.3c2.3,0,3.6,1.2,3.6,3.2c0,1.5-0.9,2.6-2.3,3l2.6,3.6c0.1,0.2,0,0.3-0.1,0.3H191.1z M187.2,78.3
								v3.3h1.8c1.3,0,1.9-0.5,1.9-1.6c0-1.1-0.6-1.7-1.9-1.7H187.2z"/>
						</g>
					</g>
					<g>
						<g>
							<path class="st1" d="M199.1,86.9c-1.4,0-2.4-0.4-3.6-1.3c-0.1-0.1-0.1-0.2,0-0.3l0.7-1c0.1-0.1,0.2-0.1,0.3,0
								c0.9,0.7,1.8,1,2.7,1.1c1,0,2-0.4,2-1.4c0-1-1.1-1.3-2.3-1.5c-1.5-0.3-3.4-1-3.4-3.1c0-1.9,1.7-2.8,3.7-2.8
								c1.2,0,2.2,0.3,3.3,1.1c0.1,0.1,0.1,0.2,0.1,0.3l-0.7,1c-0.1,0.1-0.2,0.1-0.3,0c-0.8-0.5-1.7-0.8-2.5-0.8
								c-1.2,0-1.9,0.5-1.9,1.2c0,0.9,0.9,1.1,2.1,1.4c1.6,0.4,3.6,0.9,3.6,3.1C202.9,86,201.1,86.9,199.1,86.9z"/>
						</g>
					</g>
					<g>
						<g>
							<path class="st1" d="M55,70.4h-3.1c-0.7,0-1.3-0.1-1.8-0.3c-0.5-0.2-0.9-0.5-1.2-0.8c-0.3-0.3-0.5-0.7-0.7-1.1
								c-0.1-0.4-0.2-0.8-0.2-1.2c0-0.5,0.1-1,0.3-1.5c0.2-0.5,0.4-0.9,0.7-1.3c0.3-0.4,0.7-0.6,1.1-0.9c0.4-0.2,0.9-0.3,1.5-0.3
								c0.5,0,0.9,0.1,1.3,0.2c0.4,0.2,0.7,0.4,1,0.7c0.3,0.3,0.5,0.7,0.7,1.1c0.2,0.4,0.2,0.9,0.2,1.4V70.4z M53,68.4v-1.5
								c0-0.6-0.1-1.1-0.4-1.5c-0.2-0.3-0.6-0.5-1.1-0.5c-0.2,0-0.4,0-0.6,0.1c-0.2,0.1-0.4,0.2-0.5,0.4c-0.1,0.2-0.3,0.3-0.4,0.6
								c-0.1,0.2-0.1,0.5-0.1,0.7c0,0.3,0.1,0.6,0.2,0.8c0.1,0.2,0.2,0.4,0.4,0.5c0.2,0.1,0.4,0.2,0.6,0.3c0.2,0.1,0.5,0.1,0.7,0.1
								H53z"/>
						</g>
					</g>
					<g>
						<g>
							<path class="st1" d="M64,70.4c0,0.7-0.2,1.2-0.4,1.7c-0.2,0.5-0.5,0.9-0.9,1.1c-0.4,0.3-0.8,0.5-1.4,0.7
								c-0.5,0.1-1.1,0.2-1.7,0.2c-0.3,0-0.5,0-0.8,0c-0.3,0-0.6-0.1-0.9-0.1l0.1-1.9c0.3,0,0.6,0.1,0.9,0.1c0.3,0,0.6,0,0.8,0
								c0.3,0,0.6,0,0.9-0.1c0.3,0,0.5-0.1,0.8-0.3c0.2-0.1,0.4-0.3,0.5-0.5c0.1-0.2,0.2-0.5,0.2-0.9H61c-0.7,0-1.3-0.1-1.8-0.3
								c-0.5-0.2-0.9-0.5-1.2-0.8c-0.3-0.3-0.5-0.7-0.7-1.1c-0.1-0.4-0.2-0.8-0.2-1.2c0-0.5,0.1-1,0.3-1.5c0.2-0.5,0.4-0.9,0.7-1.3
								c0.3-0.4,0.7-0.6,1.1-0.9c0.4-0.2,0.9-0.3,1.5-0.3c0.5,0,1,0.1,1.4,0.2c0.4,0.2,0.7,0.4,1,0.7c0.3,0.3,0.5,0.7,0.6,1.1
								c0.1,0.4,0.2,0.9,0.2,1.4v2h1.7c0.2,0,0.3,0,0.4,0.1c0.1,0.1,0.1,0.2,0.1,0.3v1c0,0.1,0,0.2-0.1,0.3
								c-0.1,0.1-0.2,0.2-0.4,0.2H64z M62.1,68.4v-1.5c0-0.6-0.1-1.1-0.4-1.5c-0.3-0.3-0.6-0.5-1.1-0.5c-0.2,0-0.4,0-0.6,0.1
								c-0.2,0.1-0.4,0.2-0.5,0.4c-0.1,0.2-0.3,0.3-0.4,0.6c-0.1,0.2-0.1,0.5-0.1,0.7c0,0.3,0.1,0.6,0.2,0.8
								c0.1,0.2,0.2,0.4,0.4,0.5c0.2,0.1,0.4,0.2,0.6,0.3c0.2,0.1,0.5,0.1,0.7,0.1H62.1z"/>
						</g>
					</g>
					<g>
						<g>
							<path class="st1" d="M65.6,70.4c-0.2,0-0.3,0-0.4-0.1c-0.1-0.1-0.1-0.2-0.1-0.3v-1c0-0.1,0-0.2,0.1-0.4
								c0.1-0.1,0.2-0.2,0.3-0.2h5.2v-1.6c0-0.4-0.1-0.7-0.2-1c-0.1-0.2-0.3-0.4-0.4-0.5c-0.2-0.1-0.4-0.2-0.6-0.2
								c-0.2,0-0.5,0-0.8,0h-2.1v-1.7l3.3-5.2l1.6,1.1l-2.6,4h0.2c0.5,0,0.9,0.1,1.3,0.2c0.4,0.1,0.8,0.3,1.1,0.5
								c0.3,0.3,0.6,0.6,0.8,1.1c0.2,0.5,0.3,1,0.3,1.7v3.7H65.6z"/>
						</g>
					</g>
					<g>
						<g>
							<path class="st1" d="M78.4,70.1c0,0.5-0.1,1-0.2,1.4c-0.1,0.4-0.3,0.8-0.6,1.2c-0.3,0.3-0.6,0.6-1,0.8
								c-0.4,0.2-0.9,0.3-1.4,0.3c-0.2,0-0.4,0-0.6,0c-0.2,0-0.3,0-0.5-0.1c-0.1,0-0.2,0-0.2,0c-0.1,0-0.2,0-0.2-0.1l0.2-1.9
								l0.5,0.1c0.1,0,0.3,0,0.4,0.1c0.1,0,0.3,0,0.4,0c0.5,0,0.8-0.2,1-0.5c0.2-0.3,0.3-0.8,0.3-1.4v-6.3h1.9V70.1z"/>
						</g>
					</g>
					<g>
						<g>
							<path class="st1" d="M81,58.2h1.9v10.2h1.2c0.2,0,0.3,0,0.4,0.1c0.1,0.1,0.1,0.2,0.1,0.3v1c0,0.1,0,0.2-0.1,0.3
								c-0.1,0.1-0.2,0.2-0.4,0.2H81V58.2z"/>
						</g>
					</g>
					<g>
						<path class="st1" d="M84,70.4c-0.2,0-0.3,0-0.4-0.1c-0.1-0.1-0.1-0.2-0.1-0.3v-1c0-0.1,0-0.2,0.1-0.4c0.1-0.1,0.2-0.2,0.4-0.2
							h3c0.3,0,0.4-0.1,0.5-0.2c0.1-0.1,0.1-0.3,0.1-0.6v-2.4h1.9v1.7c0,0.4,0.1,0.8,0.3,1.1c0.2,0.3,0.6,0.5,1.2,0.5h0.3
							c0.3,0,0.4-0.1,0.5-0.2C92,68,92,67.8,92,67.5v-3h2v2.3c0,0.5,0.1,0.8,0.3,1.1c0.2,0.3,0.6,0.4,1.2,0.4h0.4
							c0.3,0,0.5-0.1,0.5-0.2c0.1-0.2,0.1-0.4,0.1-0.6v-3.9h1.9v3.2c0,0.5,0.1,0.8,0.3,1.1c0.2,0.3,0.6,0.4,1.2,0.4h20.9
							c0.2,0,0.3,0,0.4,0.1c0.1,0.1,0.1,0.2,0.1,0.3v1c0,0.1,0,0.2-0.1,0.3c-0.1,0.1-0.2,0.2-0.3,0.2H99.9c-0.5,0-0.9-0.1-1.2-0.3
							c-0.3-0.2-0.5-0.5-0.7-0.8c-0.2,0.4-0.5,0.6-0.9,0.8c-0.4,0.2-0.8,0.3-1.3,0.3h-0.5c-0.5,0-0.9-0.1-1.2-0.3
							c-0.3-0.2-0.5-0.5-0.7-0.8c-0.2,0.4-0.5,0.7-0.9,0.8c-0.4,0.2-0.8,0.3-1.2,0.3H91c-0.5,0-0.9-0.1-1.2-0.3
							c-0.3-0.2-0.5-0.5-0.7-0.8c-0.2,0.4-0.5,0.7-0.9,0.8c-0.4,0.2-0.8,0.3-1.3,0.3H84z"/>
					</g>
					<g>
						<g>
							<path class="st1" d="M120.8,70.4c-0.2,0-0.3,0-0.4-0.1c-0.1-0.1-0.1-0.2-0.1-0.3v-1c0-0.1,0-0.2,0.1-0.4
								c0.1-0.1,0.2-0.2,0.3-0.2h0.7c0.7,0,1.1-0.5,1.1-1.6c0-0.5,0.1-1,0.3-1.5c0.2-0.5,0.4-0.9,0.7-1.2c0.3-0.3,0.7-0.6,1.1-0.8
								c0.4-0.2,0.9-0.3,1.4-0.3c0.6,0,1.1,0.1,1.5,0.3c0.4,0.2,0.8,0.5,1.1,0.8c0.3,0.3,0.5,0.7,0.6,1.2c0.1,0.5,0.2,1,0.2,1.6
								c0,0.4-0.1,0.9-0.2,1.3c-0.1,0.4-0.3,0.8-0.6,1.1c-0.3,0.3-0.6,0.6-1,0.8c-0.4,0.2-0.9,0.3-1.6,0.3c-0.2,0-0.5,0-0.7,0
								c-0.2,0-0.5-0.1-0.7-0.2c-0.2-0.1-0.5-0.2-0.7-0.4c-0.2-0.2-0.4-0.3-0.6-0.6c-0.2,0.4-0.4,0.7-0.7,0.9
								c-0.3,0.2-0.6,0.3-1,0.3H120.8z M126,68.5c0.5,0,0.9-0.2,1.2-0.5c0.3-0.3,0.4-0.7,0.4-1.2c0-0.3,0-0.6-0.1-0.8
								c-0.1-0.2-0.2-0.4-0.3-0.6c-0.1-0.2-0.3-0.3-0.5-0.4c-0.2-0.1-0.4-0.1-0.6-0.1c-0.2,0-0.4,0-0.6,0.1
								c-0.2,0.1-0.4,0.2-0.5,0.4c-0.1,0.2-0.3,0.4-0.3,0.6c-0.1,0.2-0.1,0.5-0.1,0.8c0,0.5,0.1,0.8,0.4,1.2
								C125,68.4,125.4,68.5,126,68.5z"/>
						</g>
					</g>
					<g>
						<g>
							<path class="st1" d="M150.2,65c-0.2-0.4-0.4-0.8-0.7-1.1c-0.3-0.3-0.6-0.5-1-0.7c-0.4-0.2-0.8-0.2-1.3-0.2
								c-0.5,0-1,0.1-1.5,0.3c-0.4,0.2-0.8,0.5-1.1,0.9c-0.3,0.4-0.6,0.8-0.7,1.3c-0.2,0.5-0.3,1-0.3,1.5c0,0.4,0.1,0.8,0.2,1.2
								c0.1,0.4,0.4,0.8,0.7,1.1c0.3,0.3,0.7,0.6,1.2,0.8c0.5,0.2,1.1,0.3,1.8,0.3h3.1v-4C150.4,65.9,150.4,65.5,150.2,65z
								 M148.5,68.4h-1.2c-0.2,0-0.5,0-0.7-0.1c-0.2-0.1-0.4-0.2-0.6-0.3c-0.2-0.1-0.3-0.3-0.4-0.5c-0.1-0.2-0.2-0.5-0.2-0.8
								c0-0.3,0-0.5,0.1-0.7c0.1-0.2,0.2-0.4,0.4-0.6c0.1-0.2,0.3-0.3,0.5-0.4c0.2-0.1,0.4-0.1,0.6-0.1c0.5,0,0.8,0.2,1.1,0.5
								c0.2,0.3,0.4,0.8,0.4,1.5V68.4z"/>
						</g>
					</g>
					<g>
						<g>
							<path class="st1" d="M156.1,70.1c0,0.5-0.1,1-0.2,1.4c-0.1,0.4-0.3,0.8-0.6,1.2c-0.3,0.3-0.6,0.6-1,0.8
								c-0.4,0.2-0.9,0.3-1.4,0.3c-0.2,0-0.4,0-0.6,0c-0.2,0-0.3,0-0.5-0.1c-0.1,0-0.2,0-0.2,0c-0.1,0-0.2,0-0.2-0.1l0.2-1.9
								l0.5,0.1c0.1,0,0.3,0,0.4,0.1c0.1,0,0.3,0,0.4,0c0.5,0,0.8-0.2,1-0.5c0.2-0.3,0.3-0.8,0.3-1.4v-6.3h1.9V70.1z"/>
						</g>
					</g>
					<g>
						<g>
							<path class="st1" d="M158.7,58.2h1.9v10.2h24.1c0.2,0,0.3,0,0.4,0.1c0.1,0.1,0.1,0.2,0.1,0.3v1c0,0.1,0,0.2-0.1,0.3
								c-0.1,0.1-0.2,0.2-0.4,0.2h-26.1V58.2z"/>
						</g>
					</g>
					<g>
						<g>
							<path class="st1" d="M184.7,70.4c-0.2,0-23.3,0-23.3-0.1c-0.1-0.1-0.1-0.2-0.1-0.3v-1c0-0.1,0-0.2,0.1-0.4
								c0.1-0.1,23.2-0.2,23.3-0.2h0.7c0.1,0,0.2,0,0.4-0.1c0.1,0,0.2-0.1,0.3-0.2c0.1-0.1,0.2-0.3,0.2-0.5c0.1-0.2,0.1-0.5,0.1-0.8
								c0-0.5,0.1-1,0.3-1.5c0.2-0.5,0.4-0.9,0.7-1.2c0.3-0.3,0.7-0.6,1.1-0.8c0.4-0.2,0.9-0.3,1.4-0.3c1.1,0,1.9,0.3,2.5,1
								c0.6,0.7,0.9,1.7,0.9,2.9c0,0.1,0,0.2,0,0.4c0,0.2,0.1,0.3,0.2,0.4c0.1,0.1,0.3,0.3,0.5,0.4c0.2,0.1,0.5,0.2,0.8,0.2h0.6
								c0.2,0,0.3,0,0.4,0.1c0.1,0.1,0.1,0.2,0.1,0.3v1c0,0.1,0,0.2-0.1,0.3c-0.1,0.1-0.2,0.2-0.4,0.2h-0.7c-0.5,0-0.9-0.1-1.3-0.4
								c-0.4-0.2-0.6-0.5-0.8-0.9c-0.2,0.3-0.4,0.6-0.6,0.8c-0.2,0.2-0.5,0.3-0.7,0.4c-0.2,0.1-0.5,0.1-0.7,0.2c-0.3,0-0.5,0-0.8,0
								c-0.6,0-1.2-0.1-1.6-0.3c-0.4-0.2-0.8-0.5-1-0.9c-0.2,0.3-0.4,0.6-0.7,0.8c-0.3,0.2-0.6,0.3-1,0.3H184.7z M189.8,68.5
								c0.5,0,0.9-0.2,1.2-0.5c0.3-0.3,0.4-0.7,0.4-1.2c0-0.3,0-0.6-0.1-0.8c-0.1-0.2-0.2-0.4-0.3-0.6c-0.1-0.2-0.3-0.3-0.5-0.4
								c-0.2-0.1-0.4-0.1-0.6-0.1c-0.2,0-0.4,0-0.6,0.1c-0.2,0.1-0.4,0.2-0.5,0.4c-0.1,0.2-0.3,0.4-0.3,0.6
								c-0.1,0.2-0.1,0.5-0.1,0.8c0,0.5,0.1,0.9,0.4,1.2C188.9,68.4,189.3,68.5,189.8,68.5z"/>
						</g>
					</g>
					<g>
						<g>
							<path class="st1" d="M197.5,68.4c-0.3-0.3-0.5-0.6-0.7-1c-0.2-0.4-0.3-0.9-0.3-1.4c0-0.4,0.1-0.8,0.2-1.2
								c0.1-0.4,0.4-0.7,0.7-1c0.3-0.3,0.7-0.6,1.1-0.7c0.5-0.2,1-0.3,1.7-0.3c0.3,0,0.5,0,0.9,0c0.3,0,0.7,0.1,1,0.1l-0.2,1.9
								c-0.3,0-0.5-0.1-0.8-0.1c-0.2,0-0.5,0-0.7,0c-0.6,0-1.1,0.1-1.4,0.4c-0.3,0.3-0.5,0.7-0.5,1.1c0,0.3,0.1,0.6,0.2,0.9
								c0.2,0.3,0.4,0.5,0.6,0.6c0.2,0.2,0.5,0.3,0.9,0.4c0.3,0.1,0.7,0.1,1,0.1h1.5v2h-7.4c-0.2,0-0.3,0-0.4-0.1
								c-0.1-0.1-0.1-0.2-0.1-0.3v-1c0-0.1,0-0.2,0.1-0.4c0.1-0.1,0.2-0.2,0.3-0.2H197.5z"/>
						</g>
					</g>
				</g>
			</g>
			<g>
				<g>
					<path class="st1" d="M81.5,95C81.5,95,81.5,95,81.5,95l-0.1-3.3c0,0,0-0.1,0.1-0.1H82c0,0,0.1,0,0.1,0.1v2.8h1.4
						c0,0,0.1,0,0.1,0.1v0.4c0,0,0,0.1-0.1,0.1H81.5z"/>
					<path class="st1" d="M87.2,94.5h1.5c0,0,0.1,0,0.1,0.1v0.4c0,0,0,0.1-0.1,0.1h-2c0,0-0.1,0-0.1-0.1v-3.3c0,0,0-0.1,0.1-0.1h2
						c0,0,0.1,0,0.1,0.1V92c0,0,0,0.1-0.1,0.1h-1.5V93h1.3c0,0,0.1,0,0.1,0.1v0.4c0,0,0,0.1-0.1,0.1h-1.3V94.5z"/>
					<path class="st1" d="M93.3,95.1c-0.7,0-1.3-0.4-1.3-1.2v-1.1c0-0.8,0.6-1.2,1.3-1.2c0.4,0,0.8,0.1,1.1,0.3c0,0,0,0.1,0,0.1
						l-0.2,0.3c0,0-0.1,0-0.1,0c-0.2-0.1-0.5-0.2-0.8-0.2c-0.4,0-0.7,0.2-0.7,0.7v1.1c0,0.5,0.3,0.7,0.8,0.7c0.3,0,0.5-0.1,0.7-0.2
						v-0.7h-0.6c0,0-0.1,0-0.1-0.1v-0.4c0,0,0-0.1,0.1-0.1h1.1c0,0,0.1,0,0.1,0.1v1.3c0,0,0,0.1,0,0.1
						C94.2,94.9,93.8,95.1,93.3,95.1z"/>
					<path class="st1" d="M97.5,95C97.5,95,97.5,95,97.5,95l1.1-3.4c0,0,0-0.1,0.1-0.1h0.5c0,0,0.1,0,0.1,0.1l1.1,3.3
						c0,0.1,0,0.1-0.1,0.1h-0.5c0,0-0.1,0-0.1-0.1l-0.2-0.7h-1.3L98.1,95c0,0,0,0.1-0.1,0.1H97.5z M98.5,93.7h1L99,92.2h0L98.5,93.7
						z"/>
					<path class="st1" d="M103.6,95C103.6,95,103.5,95,103.6,95l-0.1-3.3c0,0,0-0.1,0.1-0.1h0.4c0,0,0.1,0,0.1,0.1v2.8h1.4
						c0,0,0.1,0,0.1,0.1v0.4c0,0,0,0.1-0.1,0.1H103.6z"/>
					<path class="st1" d="M113.4,95.1c-0.7,0-1.3-0.4-1.3-1.2v-1.1c0-0.8,0.6-1.2,1.3-1.2c0.4,0,0.7,0.1,1,0.3c0,0,0,0.1,0,0.1
						l-0.2,0.3c0,0-0.1,0-0.1,0c-0.2-0.1-0.5-0.2-0.7-0.2c-0.5,0-0.7,0.3-0.7,0.7v1.1c0,0.4,0.3,0.7,0.7,0.7c0.3,0,0.6-0.1,0.8-0.2
						c0,0,0.1,0,0.1,0l0.2,0.3c0,0,0,0.1,0,0.1C114.2,95,113.8,95.1,113.4,95.1z"/>
					<path class="st1" d="M118.9,95.1c-0.8,0-1.3-0.5-1.3-1.3v-0.9c0-0.8,0.5-1.3,1.3-1.3c0.8,0,1.3,0.5,1.3,1.3v0.9
						C120.3,94.6,119.8,95.1,118.9,95.1z M118.9,94.5c0.5,0,0.8-0.3,0.8-0.8v-0.9c0-0.5-0.3-0.8-0.8-0.8s-0.8,0.3-0.8,0.8v0.9
						C118.2,94.2,118.4,94.5,118.9,94.5z"/>
					<path class="st1" d="M123.6,95C123.6,95,123.6,95,123.6,95l-0.1-3.3c0,0,0-0.1,0.1-0.1h0.5c0,0,0.1,0,0.1,0l0.9,1.6
						c0.2,0.3,0.3,0.6,0.5,0.9l0,0c0-0.4,0-0.9,0-1.3v-1.2c0,0,0-0.1,0.1-0.1h0.4c0,0,0.1,0,0.1,0.1v3.3c0,0,0,0.1-0.1,0.1h-0.5
						c0,0-0.1,0-0.1,0l-0.9-1.5c-0.2-0.3-0.4-0.7-0.5-0.9l0,0c0,0.4,0,0.9,0,1.3v1.1c0,0,0,0.1-0.1,0.1H123.6z"/>
					<path class="st1" d="M130.7,95.1c-0.5,0-0.8-0.2-1.2-0.5c0,0,0-0.1,0-0.1l0.2-0.3c0,0,0.1,0,0.1,0c0.3,0.2,0.6,0.4,0.9,0.4
						c0.3,0,0.7-0.1,0.7-0.5c0-0.3-0.4-0.4-0.8-0.5c-0.5-0.1-1.2-0.3-1.2-1c0-0.7,0.6-1,1.3-1c0.4,0,0.7,0.1,1.1,0.4
						c0,0,0,0.1,0,0.1l-0.2,0.3c0,0-0.1,0-0.1,0c-0.3-0.2-0.6-0.3-0.9-0.3c-0.4,0-0.7,0.2-0.7,0.4c0,0.3,0.3,0.4,0.7,0.5
						c0.6,0.1,1.2,0.3,1.2,1.1C132,94.8,131.4,95.1,130.7,95.1z"/>
					<path class="st1" d="M136.5,95.1c-0.8,0-1.3-0.5-1.3-1.2v-2.2c0,0,0-0.1,0.1-0.1h0.4c0,0,0.1,0,0.1,0.1v2.1
						c0,0.5,0.3,0.7,0.7,0.7c0.5,0,0.7-0.3,0.7-0.7v-2.1c0,0,0-0.1,0.1-0.1h0.4c0,0,0.1,0,0.1,0.1v2.2
						C137.8,94.6,137.3,95.1,136.5,95.1z"/>
					<path class="st1" d="M141.3,95C141.2,95,141.2,95,141.3,95l-0.1-3.3c0,0,0-0.1,0.1-0.1h0.4c0,0,0.1,0,0.1,0.1v2.8h1.4
						c0,0,0.1,0,0.1,0.1v0.4c0,0,0,0.1-0.1,0.1H141.3z"/>
					<path class="st1" d="M148.1,91.6C148.2,91.6,148.2,91.6,148.1,91.6l0.1,0.5c0,0,0,0.1-0.1,0.1h-1v2.8c0,0,0,0.1-0.1,0.1h-0.4
						c0,0-0.1,0-0.1-0.1v-2.8h-1c0,0-0.1,0-0.1-0.1v-0.4c0,0,0-0.1,0.1-0.1H148.1z"/>
					<path class="st1" d="M150.7,95C150.7,95,150.6,95,150.7,95l1.1-3.4c0,0,0-0.1,0.1-0.1h0.5c0,0,0.1,0,0.1,0.1l1.1,3.3
						c0,0.1,0,0.1-0.1,0.1h-0.5c0,0-0.1,0-0.1-0.1l-0.2-0.7h-1.3l-0.2,0.7c0,0,0,0.1-0.1,0.1H150.7z M151.7,93.7h1l-0.5-1.5h0
						L151.7,93.7z"/>
					<path class="st1" d="M156.8,95C156.8,95,156.7,95,156.8,95l-0.1-3.3c0,0,0-0.1,0.1-0.1h0.5c0,0,0.1,0,0.1,0l0.9,1.6
						c0.2,0.3,0.3,0.6,0.5,0.9l0,0c0-0.4,0-0.9,0-1.3v-1.2c0,0,0-0.1,0.1-0.1h0.4c0,0,0.1,0,0.1,0.1v3.3c0,0,0,0.1-0.1,0.1h-0.5
						c0,0-0.1,0-0.1,0l-0.9-1.5c-0.2-0.3-0.4-0.7-0.5-0.9l0,0c0,0.4,0,0.9,0,1.3v1.1c0,0,0,0.1-0.1,0.1H156.8z"/>
					<path class="st1" d="M165,91.6C165,91.6,165.1,91.6,165,91.6l0.1,0.5c0,0,0,0.1-0.1,0.1h-1v2.8c0,0,0,0.1-0.1,0.1h-0.4
						c0,0-0.1,0-0.1-0.1v-2.8h-1c0,0-0.1,0-0.1-0.1v-0.4c0,0,0-0.1,0.1-0.1H165z"/>
					<path class="st1" d="M169.2,95.1c-0.5,0-0.8-0.2-1.2-0.5c0,0,0-0.1,0-0.1l0.2-0.3c0,0,0.1,0,0.1,0c0.3,0.2,0.6,0.4,0.9,0.4
						c0.3,0,0.7-0.1,0.7-0.5c0-0.3-0.4-0.4-0.8-0.5c-0.5-0.1-1.2-0.3-1.2-1c0-0.7,0.6-1,1.3-1c0.4,0,0.7,0.1,1.1,0.4
						c0,0,0,0.1,0,0.1l-0.2,0.3c0,0-0.1,0-0.1,0c-0.3-0.2-0.6-0.3-0.9-0.3c-0.4,0-0.6,0.2-0.6,0.4c0,0.3,0.3,0.4,0.7,0.5
						c0.6,0.1,1.2,0.3,1.2,1.1C170.5,94.8,169.9,95.1,169.2,95.1z"/>
				</g>
			</g>
			<g>
				<g>
					<path class="st1" d="M81.6,53.6c-0.3,0-0.5,0-0.7-0.1c-0.2-0.1-0.3-0.2-0.4-0.3c-0.1-0.1-0.2-0.3-0.2-0.4
						c-0.1-0.2-0.1-0.3-0.1-0.5c0-0.2,0-0.4,0.1-0.6c0.1-0.2,0.2-0.3,0.3-0.5c0.1-0.1,0.3-0.2,0.4-0.3c0.2-0.1,0.3-0.1,0.5-0.1
						c0.2,0,0.3,0,0.5,0.1c0.1,0.1,0.3,0.1,0.4,0.3c0.1,0.1,0.2,0.2,0.2,0.4c0.1,0.2,0.1,0.3,0.1,0.5v0.8h0.4c0.1,0,0.1,0,0.1,0.1
						c0,0,0,0.1,0,0.1v0.4c0,0,0,0.1,0,0.1c0,0-0.1,0.1-0.1,0.1H81.6z M80.7,50.1c0-0.1,0-0.2,0.1-0.3c0.1-0.1,0.2-0.1,0.3-0.1
						c0.1,0,0.2,0,0.3,0.1c0.1,0.1,0.1,0.2,0.1,0.3s0,0.2-0.1,0.3c-0.1,0.1-0.2,0.1-0.3,0.1c-0.1,0-0.2,0-0.3-0.1
						C80.7,50.3,80.7,50.2,80.7,50.1z M82.1,52.9v-0.6c0-0.2,0-0.4-0.1-0.6c-0.1-0.1-0.2-0.2-0.4-0.2c-0.1,0-0.1,0-0.2,0
						c-0.1,0-0.1,0.1-0.2,0.1C81.1,51.8,81,51.9,81,52c0,0.1-0.1,0.2-0.1,0.3c0,0.1,0,0.2,0.1,0.3c0,0.1,0.1,0.1,0.2,0.2
						c0.1,0.1,0.1,0.1,0.2,0.1c0.1,0,0.2,0,0.3,0H82.1z M81.7,50.1c0-0.1,0-0.2,0.1-0.3c0.1-0.1,0.2-0.1,0.3-0.1
						c0.1,0,0.2,0,0.3,0.1c0.1,0.1,0.1,0.2,0.1,0.3s0,0.2-0.1,0.3c-0.1,0.1-0.2,0.1-0.3,0.1c-0.1,0-0.2,0-0.3-0.1
						C81.7,50.3,81.7,50.2,81.7,50.1z"/>
					<path class="st1" d="M83.2,53.6c-0.1,0-0.1,0-0.1-0.1c0,0,0-0.1,0-0.1v-0.4c0,0,0-0.1,0-0.1c0,0,0.1-0.1,0.1-0.1h0.6
						c0.1,0,0.2,0,0.2-0.1c0-0.1,0-0.1,0-0.2v-1.5h0.7v1.2c0,0.2,0,0.3,0.1,0.4c0.1,0.1,0.2,0.2,0.4,0.2h0.2c0.1,0,0.1,0,0.1,0.1
						c0,0,0,0.1,0,0.1v0.4c0,0,0,0.1,0,0.1c0,0-0.1,0.1-0.1,0.1h-0.2c-0.2,0-0.3,0-0.4-0.1c-0.1-0.1-0.2-0.2-0.3-0.3
						c-0.1,0.1-0.2,0.2-0.3,0.3c-0.1,0.1-0.3,0.1-0.5,0.1H83.2z M83.5,54.4c0-0.1,0-0.2,0.1-0.3c0.1-0.1,0.2-0.1,0.3-0.1
						c0.1,0,0.2,0,0.3,0.1c0.1,0.1,0.1,0.2,0.1,0.3c0,0.1,0,0.2-0.1,0.3c-0.1,0.1-0.2,0.1-0.3,0.1c-0.1,0-0.2,0-0.3-0.1
						C83.6,54.6,83.5,54.5,83.5,54.4z M84.5,54.4c0-0.1,0-0.2,0.1-0.3c0.1-0.1,0.2-0.1,0.3-0.1c0.1,0,0.2,0,0.3,0.1
						c0.1,0.1,0.1,0.2,0.1,0.3c0,0.1,0,0.2-0.1,0.3c-0.1,0.1-0.2,0.1-0.3,0.1c-0.1,0-0.2,0-0.3-0.1C84.5,54.6,84.5,54.5,84.5,54.4z"
						/>
					<path class="st1" d="M85.5,53.6c-0.1,0-0.1,0-0.1-0.1c0,0,0-0.1,0-0.1v-0.4c0,0,0-0.1,0-0.1c0,0,0.1-0.1,0.1-0.1h0.9v-1.8h0.7
						v2.5H85.5z M86.4,50.1c0-0.1,0-0.2,0.1-0.3c0.1-0.1,0.2-0.1,0.3-0.1c0.1,0,0.2,0,0.3,0.1c0.1,0.1,0.1,0.2,0.1,0.3
						s0,0.2-0.1,0.3c-0.1,0.1-0.2,0.1-0.3,0.1c-0.1,0-0.2,0-0.3-0.1C86.4,50.3,86.4,50.2,86.4,50.1z"/>
					<path class="st1" d="M90.5,53.6c0,0.2-0.1,0.5-0.1,0.6c-0.1,0.2-0.2,0.3-0.3,0.4c-0.1,0.1-0.3,0.2-0.5,0.2
						C89.3,55,89.1,55,88.8,55c-0.1,0-0.2,0-0.3,0c-0.1,0-0.2,0-0.3,0l0.1-0.7c0.1,0,0.2,0,0.3,0c0.1,0,0.2,0,0.3,0
						c0.1,0,0.2,0,0.3,0c0.1,0,0.2,0,0.3-0.1c0.1,0,0.1-0.1,0.2-0.2c0-0.1,0.1-0.2,0.1-0.3h-0.4c-0.3,0-0.5,0-0.7-0.1
						c-0.2-0.1-0.3-0.2-0.4-0.3c-0.1-0.1-0.2-0.3-0.2-0.4c-0.1-0.2-0.1-0.3-0.1-0.5c0-0.2,0-0.4,0.1-0.6c0.1-0.2,0.2-0.3,0.3-0.5
						c0.1-0.1,0.3-0.2,0.4-0.3c0.2-0.1,0.3-0.1,0.5-0.1c0.2,0,0.4,0,0.5,0.1c0.1,0.1,0.3,0.1,0.4,0.3c0.1,0.1,0.2,0.2,0.2,0.4
						c0.1,0.2,0.1,0.3,0.1,0.5v0.8h0.6c0.1,0,0.1,0,0.1,0.1c0,0,0,0.1,0,0.1v0.4c0,0,0,0.1,0,0.1c0,0-0.1,0.1-0.1,0.1H90.5z
						 M89.8,52.9v-0.6c0-0.2,0-0.4-0.1-0.6c-0.1-0.1-0.2-0.2-0.4-0.2c-0.1,0-0.1,0-0.2,0c-0.1,0-0.1,0.1-0.2,0.1
						c-0.1,0.1-0.1,0.1-0.1,0.2c0,0.1-0.1,0.2-0.1,0.3c0,0.1,0,0.2,0.1,0.3c0,0.1,0.1,0.1,0.2,0.2c0.1,0.1,0.1,0.1,0.2,0.1
						c0.1,0,0.2,0,0.3,0H89.8z"/>
					<path class="st1" d="M91.1,53.6c-0.1,0-0.1,0-0.1-0.1c0,0,0-0.1,0-0.1v-0.4c0,0,0-0.1,0-0.1c0,0,0.1-0.1,0.1-0.1h13.3v-1.8h0.7
						v2.5H91.1z M104.3,50.1c0-0.1,0-0.2,0.1-0.3c0.1-0.1,0.2-0.1,0.3-0.1c0.1,0,0.2,0,0.3,0.1c0.1,0.1,0.1,0.2,0.1,0.3
						s0,0.2-0.1,0.3c-0.1,0.1-0.2,0.1-0.3,0.1c-0.1,0-0.2,0-0.3-0.1C104.4,50.3,104.3,50.2,104.3,50.1z"/>
					<path class="st1" d="M106,49.1h0.7v3.8h0.4c0.1,0,0.1,0,0.1,0.1c0,0,12.4,0.1,12.4,0.1v0.4c0,0-12.4,0.1-12.4,0.1
						c0,0-0.1,0.1-0.1,0.1H106V49.1z"/>
					<path class="st1" d="M122.7,52.9h0.6c0.1,0,0.1,0,0.1,0.1c0,0,0,0.1,0,0.1v0.4c0,0,0,0.1,0,0.1c0,0-0.1,0.1-0.1,0.1h-16.2
						c-0.1,0-0.1,0-0.1-0.1c0,0,0-0.1,0-0.1v-0.4c0,0,0-0.1,0-0.1c0,0,0.1-0.1,0.1-0.1h13.2c0,0-0.1-0.1-0.1-0.2
						c0-0.1-0.1-0.2-0.1-0.4c0-0.2,0-0.3,0.1-0.5c0.1-0.2,0.2-0.3,0.3-0.4c0.1-0.1,0.3-0.2,0.4-0.3c0.2-0.1,0.4-0.1,0.6-0.1
						c0.2,0,0.3,0,0.5,0.1c0.1,0.1,0.3,0.1,0.4,0.2c0.1,0.1,0.2,0.2,0.2,0.4c0.1,0.2,0.1,0.3,0.1,0.5V52.9z M120.6,50.1
						c0-0.1,0-0.2,0.1-0.3c0.1-0.1,0.2-0.1,0.3-0.1c0.1,0,0.2,0,0.3,0.1c0.1,0.1,0.1,0.2,0.1,0.3s0,0.2-0.1,0.3
						c-0.1,0.1-0.2,0.1-0.3,0.1c-0.1,0-0.2,0-0.3-0.1C120.7,50.3,120.6,50.2,120.6,50.1z M122,52.9v-0.8c0-0.1,0-0.1,0-0.2
						c0-0.1,0-0.1-0.1-0.2c0,0-0.1-0.1-0.2-0.1c-0.1,0-0.1,0-0.2,0c-0.1,0-0.2,0-0.2,0c-0.1,0-0.1,0.1-0.2,0.1
						c-0.1,0.1-0.1,0.1-0.1,0.2c0,0.1,0,0.2,0,0.3c0,0.2,0,0.3,0.1,0.4c0.1,0.1,0.1,0.2,0.2,0.2c0.1,0.1,0.2,0.1,0.3,0.1H122z
						 M121.6,50.1c0-0.1,0-0.2,0.1-0.3c0.1-0.1,0.2-0.1,0.3-0.1s0.2,0,0.3,0.1c0.1,0.1,0.1,0.2,0.1,0.3s0,0.2-0.1,0.3
						c-0.1,0.1-0.2,0.1-0.3,0.1s-0.2,0-0.3-0.1C121.7,50.3,121.6,50.2,121.6,50.1z"/>
					<path class="st1" d="M123.3,53.6c-0.1,0-0.1,0-0.1-0.1c0,0,0-0.1,0-0.1v-0.4c0,0,0-0.1,0-0.1c0,0,0.1-0.1,0.1-0.1h0.7v-3.8h0.7
						v4.5H123.3z"/>
					<path class="st1" d="M125.8,49.1h0.7v4.5h-0.7V49.1z"/>
					<path class="st1" d="M129.5,53.6c-0.2,0-0.3,0-0.5-0.1c-0.1-0.1-0.2-0.1-0.3-0.2c-0.1-0.1-0.1-0.2-0.2-0.3c0-0.1,0-0.2,0-0.4
						v-1.1h0.7v0.9c0,0.1,0,0.2,0.1,0.3c0,0,0.1,0.1,0.2,0.1h2.9v-1.8h0.7v2.5H129.5z M130.2,50.1c0-0.1,0-0.2,0.1-0.3
						c0.1-0.1,0.2-0.1,0.3-0.1c0.1,0,0.2,0,0.3,0.1c0.1,0.1,0.1,0.2,0.1,0.3s0,0.2-0.1,0.3c-0.1,0.1-0.2,0.1-0.3,0.1
						c-0.1,0-0.2,0-0.3-0.1C130.2,50.3,130.2,50.2,130.2,50.1z M131.2,50.1c0-0.1,0-0.2,0.1-0.3c0.1-0.1,0.2-0.1,0.3-0.1
						c0.1,0,0.2,0,0.3,0.1c0.1,0.1,0.1,0.2,0.1,0.3s0,0.2-0.1,0.3c-0.1,0.1-0.2,0.1-0.3,0.1c-0.1,0-0.2,0-0.3-0.1
						C131.2,50.3,131.2,50.2,131.2,50.1z"/>
					<path class="st1" d="M134.2,49.1h0.7v4.5h-0.7V49.1z"/>
					<path class="st1" d="M137,53.5c0,0.2,0,0.4-0.1,0.5c0,0.2-0.1,0.3-0.2,0.4c-0.1,0.1-0.2,0.2-0.4,0.3c-0.1,0.1-0.3,0.1-0.5,0.1
						c-0.1,0-0.2,0-0.2,0c-0.1,0-0.1,0-0.2,0c0,0-0.1,0-0.1,0c0,0-0.1,0-0.1,0l0.1-0.7l0.2,0c0.1,0,0.1,0,0.2,0c0.1,0,0.1,0,0.2,0
						c0.2,0,0.3-0.1,0.4-0.2c0.1-0.1,0.1-0.3,0.1-0.5v-2.4h0.7V53.5z"/>
					<path class="st1" d="M138,49.1h0.7v3.8h12.8c0.1,0,0.1,0,0.1,0.1c0,0,0,0.1,0,0.1v0.4c0,0,0,0.1,0,0.1c0,0-0.1,0.1-0.1,0.1H138
						V49.1z"/>
					<path class="st1" d="M151.5,53.6c-0.1,0-12.5,0-12.5-0.1c0,0,0-0.1,0-0.1v-0.4c0,0,0-0.1,0-0.1c0,0,12.5-0.1,12.5-0.1h1.1
						c0.1,0,0.2,0,0.2-0.1c0-0.1,0.1-0.1,0.1-0.2v-0.9h0.7v0.6c0,0.2,0,0.3,0.1,0.4c0.1,0.1,0.2,0.2,0.4,0.2h0.1
						c0.1,0,0.2,0,0.2-0.1c0-0.1,0-0.1,0-0.2v-1.1h0.7v0.9c0,0.2,0,0.3,0.1,0.4c0.1,0.1,0.2,0.2,0.4,0.2h0.2c0.1,0,0.2,0,0.2-0.1
						c0-0.1,0-0.1,0-0.2v-1.5h0.7v1.2c0,0.2,0,0.3,0.1,0.4c0.1,0.1,0.2,0.2,0.4,0.2h0.3c0.1,0,0.1,0,0.1,0.1c0,0,0,0.1,0,0.1v0.4
						c0,0,0,0.1,0,0.1c0,0-0.1,0.1-0.1,0.1h-0.3c-0.2,0-0.3,0-0.5-0.1c-0.1-0.1-0.2-0.2-0.3-0.3c-0.1,0.1-0.2,0.2-0.3,0.3
						c-0.1,0.1-0.3,0.1-0.5,0.1h-0.2c-0.2,0-0.3,0-0.4-0.1c-0.1-0.1-0.2-0.2-0.2-0.3c-0.1,0.1-0.2,0.2-0.3,0.3
						c-0.1,0.1-0.3,0.1-0.4,0.1h-0.2c-0.2,0-0.3,0-0.4-0.1c-0.1-0.1-0.2-0.2-0.2-0.3c-0.1,0.1-0.2,0.2-0.3,0.3
						c-0.1,0.1-0.3,0.1-0.5,0.1H151.5z M154,50.1c0-0.1,0-0.2,0.1-0.3c0.1-0.1,0.2-0.1,0.3-0.1c0.1,0,0.2,0,0.3,0.1
						c0.1,0.1,0.1,0.2,0.1,0.3s0,0.2-0.1,0.3s-0.2,0.1-0.3,0.1c-0.1,0-0.2,0-0.3-0.1C154.1,50.3,154,50.2,154,50.1z M154.5,49.3
						c0-0.1,0-0.2,0.1-0.3c0.1-0.1,0.2-0.1,0.3-0.1c0.1,0,0.2,0,0.3,0.1c0.1,0.1,0.1,0.2,0.1,0.3c0,0.1,0,0.2-0.1,0.3
						c-0.1,0.1-0.2,0.1-0.3,0.1c-0.1,0-0.2,0-0.3-0.1S154.5,49.4,154.5,49.3z M155,50.1c0-0.1,0-0.2,0.1-0.3
						c0.1-0.1,0.2-0.1,0.3-0.1c0.1,0,0.2,0,0.3,0.1c0.1,0.1,0.1,0.2,0.1,0.3s0,0.2-0.1,0.3c-0.1,0.1-0.2,0.1-0.3,0.1
						c-0.1,0-0.2,0-0.3-0.1S155,50.2,155,50.1z"/>
					<path class="st1" d="M157.7,53.6c-0.1,0-0.1,0-0.1-0.1c0,0,0-0.1,0-0.1v-0.4c0,0,0-0.1,0-0.1c0,0,0.1-0.1,0.1-0.1h0.6
						c0.1,0,0.2,0,0.2-0.1c0-0.1,0-0.1,0-0.2v-1.5h0.7v1.2c0,0.2,0,0.3,0.1,0.4c0.1,0.1,0.2,0.2,0.4,0.2h0.2c0.1,0,0.1,0,0.1,0.1
						c0,0,0,0.1,0,0.1v0.4c0,0,0,0.1,0,0.1c0,0-0.1,0.1-0.1,0.1h-0.2c-0.2,0-0.3,0-0.4-0.1c-0.1-0.1-0.2-0.2-0.3-0.3
						c-0.1,0.1-0.2,0.2-0.3,0.3c-0.1,0.1-0.3,0.1-0.5,0.1H157.7z M158.1,50.1c0-0.1,0-0.2,0.1-0.3c0.1-0.1,0.2-0.1,0.3-0.1
						c0.1,0,0.2,0,0.3,0.1c0.1,0.1,0.1,0.2,0.1,0.3s0,0.2-0.1,0.3c-0.1,0.1-0.2,0.1-0.3,0.1c-0.1,0-0.2,0-0.3-0.1
						C158.1,50.3,158.1,50.2,158.1,50.1z M159.1,50.1c0-0.1,0-0.2,0.1-0.3c0.1-0.1,0.2-0.1,0.3-0.1s0.2,0,0.3,0.1
						c0.1,0.1,0.1,0.2,0.1,0.3s0,0.2-0.1,0.3c-0.1,0.1-0.2,0.1-0.3,0.1s-0.2,0-0.3-0.1C159.1,50.3,159.1,50.2,159.1,50.1z"/>
					<path class="st1" d="M160,53.6c-0.1,0-0.1,0-0.1-0.1c0,0,0-0.1,0-0.1v-0.4c0,0,0-0.1,0-0.1c0,0,0.1-0.1,0.1-0.1h1.1
						c0.1,0,0.2,0,0.2-0.1c0-0.1,0-0.1,0-0.2v-0.9h0.7v0.6c0,0.2,0,0.3,0.1,0.4c0.1,0.1,0.2,0.2,0.4,0.2h0.2c0.1,0,0.2,0,0.2-0.1
						c0-0.1,0-0.1,0-0.2v-1.1h0.7v0.9c0,0.2,0,0.3,0.1,0.4c0.1,0.1,0.2,0.2,0.4,0.2h0.4v-1.8h0.7v2.5h-1.1c-0.2,0-0.3,0-0.4-0.1
						c-0.1-0.1-0.2-0.2-0.3-0.3c-0.1,0.1-0.2,0.2-0.3,0.3c-0.1,0.1-0.3,0.1-0.5,0.1h-0.2c-0.2,0-0.3,0-0.4-0.1
						c-0.1-0.1-0.2-0.2-0.3-0.3c-0.1,0.1-0.2,0.2-0.3,0.3c-0.1,0.1-0.3,0.1-0.5,0.1H160z"/>
					<path class="st1" d="M170.1,53.6c-0.2,0-0.3,0-0.4-0.1c-0.1-0.1-0.2-0.2-0.3-0.3c-0.1,0.1-0.2,0.2-0.3,0.3
						c-0.1,0.1-0.3,0.1-0.4,0.1H166v-0.7h1.3v-2.6h0.7v2.6h0.6c0.1,0,0.2,0,0.2-0.1c0-0.1,0-0.1,0-0.2v-3.5h0.7v3.2
						c0,0.2,0,0.3,0.1,0.4c0.1,0.1,0.2,0.2,0.4,0.2h0.2c0.1,0,0.1,0,0.1,0.1c0,0,0,0.1,0,0.1v0.4c0,0,0,0.1,0,0.1
						c0,0-0.1,0.1-0.1,0.1H170.1z"/>
					<path class="st1" d="M170.3,53.6c-0.1,0-0.1,0-0.1-0.1c0,0,0-0.1,0-0.1v-0.4c0,0,0-0.1,0-0.1s0.1-0.1,0.1-0.1h0.7v-3.8h0.7v4.5
						H170.3z"/>
				</g>
			</g>
			<g>
				<g>
					<polygon class="st1" points="182.5,50.8 182.5,52.2 212.3,52.2 212.3,92.6 178,92.6 178,94 213.7,94 213.7,50.8 					"/>
					<polygon class="st1" points="38.3,50.8 38.3,94 74,94 74,92.6 39.7,92.6 39.7,52.2 74,52.2 74,50.8 					"/>
					<rect x="178" y="50.8" class="st1" width="4.6" height="1.4"/>
				</g>
			</g>
		</g>
	</g>
</g>
</svg>
