<?xml version="1.0" encoding="utf-8"?>
<!-- Generator: Adobe Illustrator 24.3.0, SVG Export Plug-In . SVG Version: 6.00 Build 0)  -->
<svg version="1.1" xmlns="http://www.w3.org/2000/svg" xmlns:xlink="http://www.w3.org/1999/xlink" x="0px" y="0px"
	 viewBox="0 0 252 144" style="enable-background:new 0 0 252 144;" xml:space="preserve">
<style type="text/css">
	.st0{fill:#496BB3;}
	.st1{fill:#565E71;}
</style>
<g id="Layer_2">
</g>
<g id="Layer_1">
	<g>
		<g>
			<g>
				<g>
					<path class="st0" d="M111.5,76.2c-1.6,0-3-1.2-3-2.9c0-1.4,0.9-2.2,1.8-2.8c-0.5-0.6-0.9-1.4-0.9-2.2c0-1.3,1.1-2.4,2.6-2.4
						c1.4,0,2.5,1,2.5,2.4c0,1.3-0.9,2-1.9,2.6c0.4,0.6,0.9,1.2,1.4,1.8c0.3-0.4,0.5-0.8,0.6-1.1c0.1-0.1,0.1-0.2,0.3-0.1l1,0.4
						c0.1,0.1,0.2,0.1,0.1,0.3c-0.2,0.6-0.6,1.2-0.9,1.8l1.4,1.8c0.1,0.1,0,0.3-0.1,0.3h-1.4c-0.1,0-0.2,0-0.3-0.1l-0.6-0.8
						C113.3,75.7,112.5,76.2,111.5,76.2z M111.6,74.7c0.6,0,1-0.3,1.4-0.8l-1.8-2.3c-0.7,0.4-1.2,0.9-1.2,1.6
						C110,74.1,110.7,74.7,111.6,74.7z M111.6,69.7c0.8-0.4,1.3-0.8,1.3-1.5c0-0.6-0.3-1-1-1c-0.6,0-1.1,0.5-1.1,1
						C110.9,68.7,111.2,69.2,111.6,69.7z"/>
				</g>
				<g>
					<g>
						<g>
							<g>
								<path class="st1" d="M48.3,76c-0.2,0-0.2-0.1-0.2-0.2l3.4-9.6c0-0.1,0.1-0.2,0.2-0.2h1.6c0.1,0,0.2,0.1,0.2,0.2l3.4,9.6
									c0,0.2,0,0.2-0.2,0.2h-1.4c-0.1,0-0.2-0.1-0.2-0.2l-0.7-2.1h-3.8l-0.7,2.1c0,0.1-0.1,0.2-0.2,0.2H48.3z M51,72.2h2.9
									l-1.4-4.4h-0.1L51,72.2z"/>
							</g>
						</g>
						<g>
							<g>
								<path class="st1" d="M59.9,76c-0.1,0-0.2-0.1-0.2-0.2v-9.6c0-0.1,0.1-0.2,0.2-0.2h1.5c0.1,0,0.2,0,0.2,0.2l1.7,3.2
									c0.4,0.7,1,2,1.2,2.5h0.1c0.2-0.5,0.8-1.8,1.2-2.5l1.7-3.2c0.1-0.1,0.1-0.2,0.2-0.2h1.5c0.1,0,0.2,0.1,0.2,0.2v9.6
									c0,0.1-0.1,0.2-0.2,0.2h-1.3c-0.1,0-0.2-0.1-0.2-0.2V73c0-1.3,0.1-3,0.1-4.4l0,0c-0.3,0.7-0.8,1.7-1.3,2.6l-1.2,2.4
									c0,0.1-0.1,0.2-0.2,0.2H64c-0.1,0-0.2-0.1-0.2-0.2l-1.2-2.4c-0.5-0.9-0.9-1.9-1.3-2.6l0,0c0.1,1.4,0.1,3.1,0.1,4.4v2.8
									c0,0.1-0.1,0.2-0.2,0.2H59.9z"/>
							</g>
						</g>
						<g>
							<g>
								<path class="st1" d="M72.4,76c-0.2,0-0.2-0.1-0.2-0.2l3.4-9.6c0-0.1,0.1-0.2,0.2-0.2h1.6c0.1,0,0.2,0.1,0.2,0.2l3.4,9.6
									c0,0.2,0,0.2-0.2,0.2h-1.4c-0.1,0-0.2-0.1-0.2-0.2l-0.7-2.1h-3.8L74,75.9c0,0.1-0.1,0.2-0.2,0.2H72.4z M75.2,72.2h2.9
									l-1.4-4.4h-0.1L75.2,72.2z"/>
							</g>
						</g>
						<g>
							<g>
								<path class="st1" d="M89.4,76c-0.1,0-0.2,0-0.2-0.1l-2.5-3.5h-1.2v3.4c0,0.1-0.1,0.2-0.2,0.2H84c-0.1,0-0.2-0.1-0.2-0.2
									v-9.6c0-0.1,0.1-0.2,0.2-0.2h3.3c2.3,0,3.6,1.2,3.6,3.2c0,1.5-0.9,2.6-2.3,3l2.6,3.6c0.1,0.2,0,0.3-0.1,0.3H89.4z
									 M85.5,67.6v3.3h1.8c1.3,0,1.9-0.5,1.9-1.6c0-1.1-0.6-1.7-1.9-1.7H85.5z"/>
							</g>
						</g>
						<g>
							<g>
								<path class="st1" d="M93.4,76c-0.2,0-0.2-0.1-0.2-0.2l3.4-9.6c0-0.1,0.1-0.2,0.2-0.2h1.6c0.1,0,0.2,0.1,0.2,0.2l3.4,9.6
									c0,0.2,0,0.2-0.2,0.2h-1.4c-0.1,0-0.2-0.1-0.2-0.2l-0.7-2.1h-3.8L95,75.9c0,0.1-0.1,0.2-0.2,0.2H93.4z M96.2,72.2h2.9
									l-1.4-4.4h-0.1L96.2,72.2z"/>
							</g>
						</g>
						<g>
							<g>
								<path class="st1" d="M127.6,66c2.2,0,3.5,1.3,3.5,3.4c0,2.2-1.3,3.4-3.5,3.4h-2.1v3c0,0.1-0.1,0.2-0.2,0.2h-1.3
									c-0.1,0-0.2-0.1-0.2-0.2v-9.6c0-0.1,0.1-0.2,0.2-0.2H127.6z M127.4,71.3c1.4,0,2-0.6,2-1.9c0-1.3-0.6-1.8-2-1.8h-1.9v3.7
									H127.4z"/>
							</g>
						</g>
						<g>
							<g>
								<path class="st1" d="M132.9,76c-0.2,0-0.2-0.1-0.2-0.2l3.4-9.6c0-0.1,0.1-0.2,0.2-0.2h1.6c0.1,0,0.2,0.1,0.2,0.2l3.4,9.6
									c0,0.2,0,0.2-0.2,0.2h-1.4c-0.1,0-0.2-0.1-0.2-0.2l-0.7-2.1h-3.8l-0.7,2.1c0,0.1-0.1,0.2-0.2,0.2H132.9z M135.6,72.2h2.9
									l-1.4-4.4h-0.1L135.6,72.2z"/>
							</g>
						</g>
						<g>
							<g>
								<path class="st1" d="M149.9,76c-0.1,0-0.2,0-0.2-0.1l-2.5-3.5H146v3.4c0,0.1-0.1,0.2-0.2,0.2h-1.3c-0.1,0-0.2-0.1-0.2-0.2
									v-9.6c0-0.1,0.1-0.2,0.2-0.2h3.3c2.3,0,3.6,1.2,3.6,3.2c0,1.5-0.9,2.6-2.3,3l2.6,3.6c0.1,0.2,0,0.3-0.1,0.3H149.9z
									 M146,67.6v3.3h1.8c1.3,0,1.9-0.5,1.9-1.6c0-1.1-0.6-1.7-1.9-1.7H146z"/>
							</g>
						</g>
						<g>
							<g>
								<path class="st1" d="M161.2,66c0.1,0,0.2,0.1,0.2,0.2v1.1c0,0.1-0.1,0.2-0.2,0.2h-2.8v8.3c0,0.1-0.1,0.2-0.2,0.2h-1.3
									c-0.1,0-0.2-0.1-0.2-0.2v-8.3h-2.8c-0.1,0-0.2-0.1-0.2-0.2v-1.1c0-0.1,0.1-0.2,0.2-0.2H161.2z"/>
							</g>
						</g>
						<g>
							<g>
								<path class="st1" d="M164.5,76c-0.1,0-0.2-0.1-0.2-0.2v-9.6c0-0.1,0.1-0.2,0.2-0.2h1.4c0.1,0,0.2,0.1,0.3,0.1l2.7,4.8
									c0.5,0.8,1,1.8,1.4,2.5l0,0c-0.1-1.2-0.1-2.6-0.1-3.8v-3.4c0-0.1,0.1-0.2,0.2-0.2h1.3c0.1,0,0.2,0.1,0.2,0.2v9.6
									c0,0.1-0.1,0.2-0.2,0.2h-1.4c-0.1,0-0.2,0-0.2-0.1l-2.6-4.4c-0.5-0.8-1.1-1.9-1.5-2.8l0,0c0.1,1.2,0.1,2.7,0.1,3.9v3.2
									c0,0.1-0.1,0.2-0.2,0.2H164.5z"/>
							</g>
						</g>
						<g>
							<g>
								<path class="st1" d="M177.4,74.5h4.5c0.1,0,0.2,0.1,0.2,0.2v1.1c0,0.1-0.1,0.2-0.2,0.2h-6c-0.1,0-0.2-0.1-0.2-0.2v-9.6
									c0-0.1,0.1-0.2,0.2-0.2h5.8c0.1,0,0.2,0.1,0.2,0.2v1.1c0,0.1-0.1,0.2-0.2,0.2h-4.3v2.6h3.9c0.1,0,0.2,0.1,0.2,0.2v1.1
									c0,0.1-0.1,0.2-0.2,0.2h-3.9V74.5z"/>
							</g>
						</g>
						<g>
							<g>
								<path class="st1" d="M191.1,76c-0.1,0-0.2,0-0.2-0.1l-2.5-3.5h-1.2v3.4c0,0.1-0.1,0.2-0.2,0.2h-1.3c-0.1,0-0.2-0.1-0.2-0.2
									v-9.6c0-0.1,0.1-0.2,0.2-0.2h3.3c2.3,0,3.6,1.2,3.6,3.2c0,1.5-0.9,2.6-2.3,3l2.6,3.6c0.1,0.2,0,0.3-0.1,0.3H191.1z
									 M187.2,67.6v3.3h1.8c1.3,0,1.9-0.5,1.9-1.6c0-1.1-0.6-1.7-1.9-1.7H187.2z"/>
							</g>
						</g>
						<g>
							<g>
								<path class="st1" d="M199.1,76.2c-1.4,0-2.4-0.4-3.6-1.3c-0.1-0.1-0.1-0.2,0-0.3l0.7-1c0.1-0.1,0.2-0.1,0.3,0
									c0.9,0.7,1.8,1,2.7,1.1c1,0,2-0.4,2-1.4c0-1-1.1-1.3-2.3-1.5c-1.5-0.3-3.4-1-3.4-3.1c0-1.9,1.7-2.8,3.7-2.8
									c1.2,0,2.2,0.3,3.3,1.1c0.1,0.1,0.1,0.2,0.1,0.3l-0.7,1c-0.1,0.1-0.2,0.1-0.3,0c-0.8-0.5-1.7-0.8-2.5-0.8
									c-1.2,0-1.9,0.5-1.9,1.2c0,0.9,0.9,1.1,2.1,1.4c1.6,0.4,3.6,0.9,3.6,3.1C202.9,75.3,201.1,76.2,199.1,76.2z"/>
							</g>
						</g>
					</g>
				</g>
				<g>
					<g>
						<path class="st1" d="M81.5,84.3C81.5,84.3,81.5,84.3,81.5,84.3l-0.1-3.3c0,0,0-0.1,0.1-0.1H82c0,0,0.1,0,0.1,0.1v2.8h1.4
							c0,0,0.1,0,0.1,0.1v0.4c0,0,0,0.1-0.1,0.1H81.5z"/>
						<path class="st1" d="M87.2,83.8h1.5c0,0,0.1,0,0.1,0.1v0.4c0,0,0,0.1-0.1,0.1h-2c0,0-0.1,0-0.1-0.1v-3.3c0,0,0-0.1,0.1-0.1h2
							c0,0,0.1,0,0.1,0.1v0.4c0,0,0,0.1-0.1,0.1h-1.5v0.9h1.3c0,0,0.1,0,0.1,0.1v0.4c0,0,0,0.1-0.1,0.1h-1.3V83.8z"/>
						<path class="st1" d="M93.3,84.3c-0.7,0-1.3-0.4-1.3-1.2V82c0-0.8,0.6-1.2,1.3-1.2c0.4,0,0.8,0.1,1.1,0.3c0,0,0,0.1,0,0.1
							l-0.2,0.3c0,0-0.1,0-0.1,0c-0.2-0.1-0.5-0.2-0.8-0.2c-0.4,0-0.7,0.2-0.7,0.7v1.1c0,0.5,0.3,0.7,0.8,0.7c0.3,0,0.5-0.1,0.7-0.2
							v-0.7h-0.6c0,0-0.1,0-0.1-0.1v-0.4c0,0,0-0.1,0.1-0.1h1.1c0,0,0.1,0,0.1,0.1v1.3c0,0,0,0.1,0,0.1
							C94.2,84.1,93.8,84.3,93.3,84.3z"/>
						<path class="st1" d="M97.5,84.3C97.5,84.3,97.5,84.3,97.5,84.3l1.1-3.4c0,0,0-0.1,0.1-0.1h0.5c0,0,0.1,0,0.1,0.1l1.1,3.3
							c0,0.1,0,0.1-0.1,0.1h-0.5c0,0-0.1,0-0.1-0.1l-0.2-0.7h-1.3l-0.2,0.7c0,0,0,0.1-0.1,0.1H97.5z M98.5,83h1L99,81.5h0L98.5,83z"
							/>
						<path class="st1" d="M103.6,84.3C103.6,84.3,103.5,84.3,103.6,84.3l-0.1-3.3c0,0,0-0.1,0.1-0.1h0.4c0,0,0.1,0,0.1,0.1v2.8h1.4
							c0,0,0.1,0,0.1,0.1v0.4c0,0,0,0.1-0.1,0.1H103.6z"/>
						<path class="st1" d="M113.4,84.3c-0.7,0-1.3-0.4-1.3-1.2V82c0-0.8,0.6-1.2,1.3-1.2c0.4,0,0.7,0.1,1,0.3c0,0,0,0.1,0,0.1
							l-0.2,0.3c0,0-0.1,0-0.1,0c-0.2-0.1-0.5-0.2-0.7-0.2c-0.5,0-0.7,0.3-0.7,0.7v1.1c0,0.4,0.3,0.7,0.7,0.7c0.3,0,0.6-0.1,0.8-0.2
							c0,0,0.1,0,0.1,0l0.2,0.3c0,0,0,0.1,0,0.1C114.2,84.2,113.8,84.3,113.4,84.3z"/>
						<path class="st1" d="M118.9,84.3c-0.8,0-1.3-0.5-1.3-1.3v-0.9c0-0.8,0.5-1.3,1.3-1.3c0.8,0,1.3,0.5,1.3,1.3V83
							C120.3,83.8,119.8,84.3,118.9,84.3z M118.9,83.8c0.5,0,0.8-0.3,0.8-0.8v-0.9c0-0.5-0.3-0.8-0.8-0.8s-0.8,0.3-0.8,0.8V83
							C118.2,83.5,118.4,83.8,118.9,83.8z"/>
						<path class="st1" d="M123.6,84.3C123.6,84.3,123.6,84.3,123.6,84.3l-0.1-3.3c0,0,0-0.1,0.1-0.1h0.5c0,0,0.1,0,0.1,0l0.9,1.6
							c0.2,0.3,0.3,0.6,0.5,0.9l0,0c0-0.4,0-0.9,0-1.3v-1.2c0,0,0-0.1,0.1-0.1h0.4c0,0,0.1,0,0.1,0.1v3.3c0,0,0,0.1-0.1,0.1h-0.5
							c0,0-0.1,0-0.1,0l-0.9-1.5c-0.2-0.3-0.4-0.7-0.5-0.9l0,0c0,0.4,0,0.9,0,1.3v1.1c0,0,0,0.1-0.1,0.1H123.6z"/>
						<path class="st1" d="M130.7,84.3c-0.5,0-0.8-0.2-1.2-0.5c0,0,0-0.1,0-0.1l0.2-0.3c0,0,0.1,0,0.1,0c0.3,0.2,0.6,0.4,0.9,0.4
							c0.3,0,0.7-0.1,0.7-0.5c0-0.3-0.4-0.4-0.8-0.5c-0.5-0.1-1.2-0.3-1.2-1c0-0.7,0.6-1,1.3-1c0.4,0,0.7,0.1,1.1,0.4
							c0,0,0,0.1,0,0.1l-0.2,0.3c0,0-0.1,0-0.1,0c-0.3-0.2-0.6-0.3-0.9-0.3c-0.4,0-0.7,0.2-0.7,0.4c0,0.3,0.3,0.4,0.7,0.5
							c0.6,0.1,1.2,0.3,1.2,1.1C132,84,131.4,84.3,130.7,84.3z"/>
						<path class="st1" d="M136.5,84.3c-0.8,0-1.3-0.5-1.3-1.2v-2.2c0,0,0-0.1,0.1-0.1h0.4c0,0,0.1,0,0.1,0.1v2.1
							c0,0.5,0.3,0.7,0.7,0.7c0.5,0,0.7-0.3,0.7-0.7v-2.1c0,0,0-0.1,0.1-0.1h0.4c0,0,0.1,0,0.1,0.1v2.2
							C137.8,83.8,137.3,84.3,136.5,84.3z"/>
						<path class="st1" d="M141.3,84.3C141.2,84.3,141.2,84.3,141.3,84.3l-0.1-3.3c0,0,0-0.1,0.1-0.1h0.4c0,0,0.1,0,0.1,0.1v2.8h1.4
							c0,0,0.1,0,0.1,0.1v0.4c0,0,0,0.1-0.1,0.1H141.3z"/>
						<path class="st1" d="M148.1,80.9C148.2,80.9,148.2,80.9,148.1,80.9l0.1,0.5c0,0,0,0.1-0.1,0.1h-1v2.8c0,0,0,0.1-0.1,0.1h-0.4
							c0,0-0.1,0-0.1-0.1v-2.8h-1c0,0-0.1,0-0.1-0.1v-0.4c0,0,0-0.1,0.1-0.1H148.1z"/>
						<path class="st1" d="M150.7,84.3C150.7,84.3,150.6,84.3,150.7,84.3l1.1-3.4c0,0,0-0.1,0.1-0.1h0.5c0,0,0.1,0,0.1,0.1l1.1,3.3
							c0,0.1,0,0.1-0.1,0.1h-0.5c0,0-0.1,0-0.1-0.1l-0.2-0.7h-1.3l-0.2,0.7c0,0,0,0.1-0.1,0.1H150.7z M151.7,83h1l-0.5-1.5h0
							L151.7,83z"/>
						<path class="st1" d="M156.8,84.3C156.8,84.3,156.7,84.3,156.8,84.3l-0.1-3.3c0,0,0-0.1,0.1-0.1h0.5c0,0,0.1,0,0.1,0l0.9,1.6
							c0.2,0.3,0.3,0.6,0.5,0.9l0,0c0-0.4,0-0.9,0-1.3v-1.2c0,0,0-0.1,0.1-0.1h0.4c0,0,0.1,0,0.1,0.1v3.3c0,0,0,0.1-0.1,0.1h-0.5
							c0,0-0.1,0-0.1,0l-0.9-1.5c-0.2-0.3-0.4-0.7-0.5-0.9l0,0c0,0.4,0,0.9,0,1.3v1.1c0,0,0,0.1-0.1,0.1H156.8z"/>
						<path class="st1" d="M165,80.9C165,80.9,165.1,80.9,165,80.9l0.1,0.5c0,0,0,0.1-0.1,0.1h-1v2.8c0,0,0,0.1-0.1,0.1h-0.4
							c0,0-0.1,0-0.1-0.1v-2.8h-1c0,0-0.1,0-0.1-0.1v-0.4c0,0,0-0.1,0.1-0.1H165z"/>
						<path class="st1" d="M169.2,84.3c-0.5,0-0.8-0.2-1.2-0.5c0,0,0-0.1,0-0.1l0.2-0.3c0,0,0.1,0,0.1,0c0.3,0.2,0.6,0.4,0.9,0.4
							c0.3,0,0.7-0.1,0.7-0.5c0-0.3-0.4-0.4-0.8-0.5c-0.5-0.1-1.2-0.3-1.2-1c0-0.7,0.6-1,1.3-1c0.4,0,0.7,0.1,1.1,0.4
							c0,0,0,0.1,0,0.1l-0.2,0.3c0,0-0.1,0-0.1,0c-0.3-0.2-0.6-0.3-0.9-0.3c-0.4,0-0.6,0.2-0.6,0.4c0,0.3,0.3,0.4,0.7,0.5
							c0.6,0.1,1.2,0.3,1.2,1.1C170.5,84,169.9,84.3,169.2,84.3z"/>
					</g>
				</g>
			</g>
		</g>
		<g>
			<g>
				<polygon class="st1" points="39.7,64.9 39.7,61.1 74,61.1 182.5,61.1 212.3,61.1 212.3,64.9 213.7,64.9 213.7,59.7 182.5,59.7 
					74,59.7 38.3,59.7 38.3,64.9 				"/>
				<polygon class="st1" points="39.7,62 38.3,62 38.3,82.9 74,82.9 74,81.5 39.7,81.5 				"/>
				<polygon class="st1" points="212.3,62 212.3,81.5 178,81.5 178,82.9 213.7,82.9 213.7,62 				"/>
			</g>
		</g>
	</g>
</g>
</svg>
