<?xml version="1.0" encoding="utf-8"?>
<!-- Generator: Adobe Illustrator 24.3.0, SVG Export Plug-In . SVG Version: 6.00 Build 0)  -->
<svg version="1.1" xmlns="http://www.w3.org/2000/svg" xmlns:xlink="http://www.w3.org/1999/xlink" x="0px" y="0px"
	 viewBox="0 0 252 144" style="enable-background:new 0 0 252 144;" xml:space="preserve">
<style type="text/css">
	.st0{fill:#496BB3;}
	.st1{fill:#FFFFFF;}
</style>
<g id="Layer_2">
</g>
<g id="Layer_1">
	<g>
		<g>
			<g>
				<g>
					<path class="st0" d="M124.9,84.2c-3.8,0-7.1-2.7-7.1-6.9c0-3.2,2-5.1,4.3-6.6c-1.1-1.4-2.2-3.3-2.2-5.3c0-3.2,2.7-5.6,6.1-5.6
						c3.4,0,5.8,2.4,5.8,5.7c0,3-2.2,4.8-4.5,6.2c1.1,1.4,2.1,2.7,3.2,4.1c0.6-1,1.1-1.9,1.4-2.6c0.1-0.3,0.3-0.4,0.6-0.2l2.3,1
						c0.3,0.1,0.4,0.3,0.3,0.7c-0.5,1.4-1.4,2.9-2.2,4.2l3.4,4.4c0.2,0.3,0.1,0.6-0.3,0.6h-3.4c-0.2,0-0.5-0.1-0.6-0.3l-1.4-1.9
						C129.2,83.1,127.3,84.2,124.9,84.2z M125.2,80.7c1.4,0,2.4-0.8,3.3-1.8l-4.2-5.4c-1.6,1-2.8,2.1-2.8,3.8
						C121.5,79.3,123.2,80.7,125.2,80.7z M125.2,68.9c1.8-1,3.2-2,3.2-3.5c0-1.4-0.8-2.4-2.3-2.4c-1.5,0-2.5,1.1-2.5,2.4
						C123.5,66.6,124.3,67.8,125.2,68.9z"/>
				</g>
				<g>
					<g>
						<path class="st1" d="M96.9,83.8c-0.4,0-0.5-0.2-0.4-0.6l7.9-22.6c0.1-0.3,0.3-0.4,0.5-0.4h3.8c0.3,0,0.4,0.1,0.5,0.4l7.9,22.6
							c0.1,0.4-0.1,0.6-0.4,0.6h-3.2c-0.3,0-0.5-0.1-0.6-0.4l-1.6-5h-9l-1.6,5c-0.1,0.3-0.3,0.4-0.6,0.4H96.9z M103.4,74.8h6.8
							l-3.3-10.3h-0.1L103.4,74.8z"/>
						<path class="st1" d="M147.2,60.2c5.2,0,8.3,3,8.3,8c0,5.1-3.1,8.1-8.3,8.1h-4.9v7c0,0.3-0.2,0.5-0.5,0.5h-3
							c-0.3,0-0.5-0.2-0.5-0.5V60.7c0-0.3,0.2-0.5,0.5-0.5H147.2z M146.8,72.6c3.2,0,4.7-1.4,4.7-4.4c0-3-1.5-4.4-4.7-4.4h-4.4v8.7
							H146.8z"/>
					</g>
				</g>
			</g>
			<path class="st1" d="M89.3,51.4v41.1h73.3V51.4H89.3z M158.5,88.4h-65V55.6h65V88.4z"/>
		</g>
	</g>
</g>
</svg>
