<?xml version="1.0" encoding="UTF-8"?>
<svg id="Layer_1" data-name="Layer 1" xmlns="http://www.w3.org/2000/svg" viewBox="0 0 175.34 46.13">
  <defs>
    <style>
      .cls-1 {
        fill: #fff;
      }

      .cls-2 {
        fill: #496bb3;
      }
    </style>
  </defs>
  <g>
    <path class="cls-2" d="M96.85,21.52c-.71,0-1.3-.1-1.79-.3-.49-.2-.88-.46-1.18-.79-.3-.33-.52-.69-.66-1.1-.14-.41-.21-.83-.21-1.25,0-.54.09-1.05.27-1.53.18-.49.42-.91.75-1.28.32-.37.7-.65,1.15-.87.45-.21.94-.32,1.47-.32.5,0,.96.08,1.36.25.41.17.75.4,1.04.7.29.3.51.66.66,1.08.16.42.23.88.23,1.38v3.77c0,.72-.11,1.33-.33,1.84-.22.51-.52.92-.92,1.23-.39.31-.86.55-1.4.69-.54.15-1.14.22-1.79.22-.24,0-.5,0-.8-.03-.29-.02-.61-.05-.97-.11l.14-1.92c.33.05.65.08.95.1.3.02.56.03.76.03.32,0,.62-.02.91-.07.29-.05.54-.13.75-.27.22-.13.39-.31.53-.55.14-.23.22-.55.24-.93h-1.16ZM98,19.53v-1.52c0-.65-.13-1.15-.39-1.5-.26-.35-.61-.52-1.07-.52-.21,0-.4.04-.59.13-.19.09-.36.21-.51.36-.15.15-.28.34-.37.56s-.14.46-.14.74c0,.32.05.59.15.81.1.22.24.41.41.55.17.14.37.25.6.31.23.06.46.09.7.09h1.2Z"/>
    <path class="cls-2" d="M73.15,38.01c-1.62,0-3-1.16-3-2.93,0-1.37.87-2.19,1.84-2.82-.46-.6-.92-1.39-.92-2.24,0-1.34,1.13-2.37,2.59-2.37s2.47,1.01,2.45,2.41c-.01,1.29-.93,2.03-1.92,2.63.45.59.91,1.16,1.37,1.75.25-.42.48-.83.6-1.09.06-.13.14-.15.25-.1l.97.43c.13.06.15.14.11.28-.22.57-.59,1.23-.92,1.77l1.44,1.85c.1.14.03.25-.14.25h-1.44c-.1,0-.2-.03-.25-.11l-.59-.8c-.62.6-1.42,1.08-2.44,1.08ZM73.26,36.54c.6,0,1.04-.32,1.42-.79l-1.77-2.3c-.69.43-1.2.91-1.2,1.61,0,.85.69,1.47,1.55,1.47ZM73.26,31.52c.76-.43,1.35-.84,1.35-1.47,0-.57-.34-1.04-.98-1.04s-1.06.46-1.06,1.04c0,.49.32.98.7,1.47Z"/>
    <g>
      <path class="cls-1" d="M52.47,12.04c0-.27.1-.5.29-.7.19-.19.44-.29.73-.29s.54.1.73.29c.19.19.29.43.29.7s-.1.5-.29.7c-.19.19-.44.29-.73.29s-.54-.1-.73-.29c-.19-.19-.29-.43-.29-.7Z"/>
      <path class="cls-1" d="M53.77,9.84c0-.27.1-.51.3-.69.2-.19.45-.28.74-.28s.53.09.73.28c.2.19.31.42.31.69s-.1.52-.31.71c-.2.19-.45.28-.73.28s-.54-.09-.74-.28c-.2-.19-.3-.43-.3-.71Z"/>
      <path class="cls-1" d="M55.12,12.04c0-.27.1-.5.29-.7.19-.19.44-.29.73-.29s.54.1.73.29c.19.19.29.43.29.7s-.1.5-.29.7c-.19.19-.44.29-.73.29s-.54-.1-.73-.29c-.19-.19-.29-.43-.29-.7Z"/>
      <path class="cls-1" d="M106.41,12.04c0-.27.1-.5.29-.7.19-.19.44-.29.73-.29s.54.1.73.29c.19.19.29.43.29.7s-.1.5-.29.7c-.19.19-.44.29-.73.29s-.54-.1-.73-.29c-.19-.19-.29-.43-.29-.7Z"/>
      <path class="cls-1" d="M109.06,12.04c0-.27.1-.5.29-.7.19-.19.44-.29.73-.29s.54.1.73.29c.19.19.29.43.29.7s-.1.5-.29.7c-.19.19-.44.29-.73.29s-.54-.1-.73-.29c-.19-.19-.29-.43-.29-.7Z"/>
    </g>
  </g>
  <g>
    <path class="cls-1" d="M9.94,37.84c-.15,0-.21-.08-.17-.24l3.36-9.61c.04-.11.11-.17.22-.17h1.6c.11,0,.18.06.22.17l3.36,9.61c.04.15-.03.24-.17.24h-1.37c-.11,0-.21-.06-.24-.17l-.69-2.12h-3.84l-.69,2.12c-.04.11-.13.17-.24.17h-1.37ZM12.71,34.03h2.89l-1.42-4.36h-.06l-1.42,4.36Z"/>
    <path class="cls-1" d="M21.54,37.84c-.13,0-.2-.07-.2-.21v-9.6c0-.14.07-.21.2-.21h1.53c.1,0,.18.04.22.15l1.71,3.18c.38.7.97,1.96,1.19,2.47h.06c.22-.5.81-1.77,1.19-2.47l1.7-3.18c.06-.11.14-.15.24-.15h1.51c.14,0,.21.07.21.21v9.6c0,.14-.07.21-.21.21h-1.28c-.13,0-.2-.07-.2-.21v-2.82c0-1.32.06-3.03.11-4.4h-.04c-.34.71-.8,1.65-1.26,2.58l-1.23,2.4c-.04.1-.13.15-.24.15h-1.07c-.11,0-.2-.06-.24-.15l-1.23-2.4c-.46-.93-.92-1.86-1.26-2.59h-.04c.06,1.39.11,3.1.11,4.41v2.82c0,.14-.07.21-.21.21h-1.28Z"/>
    <path class="cls-1" d="M34.07,37.84c-.15,0-.21-.08-.17-.24l3.36-9.61c.04-.11.11-.17.22-.17h1.6c.11,0,.18.06.22.17l3.36,9.61c.04.15-.03.24-.17.24h-1.37c-.11,0-.21-.06-.24-.17l-.69-2.12h-3.84l-.69,2.12c-.04.11-.13.17-.24.17h-1.37ZM36.84,34.03h2.89l-1.41-4.36h-.06l-1.42,4.36Z"/>
    <path class="cls-1" d="M51.1,37.84c-.1,0-.18-.04-.24-.14l-2.45-3.52h-1.25v3.45c0,.14-.07.21-.2.21h-1.29c-.13,0-.2-.07-.2-.21v-9.6c0-.14.07-.21.2-.21h3.25c2.3,0,3.64,1.19,3.64,3.2,0,1.54-.85,2.59-2.33,2.98l2.57,3.59c.1.15.03.25-.13.25h-1.58ZM47.16,29.37v3.29h1.76c1.3,0,1.92-.52,1.92-1.64s-.62-1.65-1.92-1.65h-1.76Z"/>
    <path class="cls-1" d="M55.08,37.84c-.15,0-.21-.08-.17-.24l3.36-9.61c.04-.11.11-.17.22-.17h1.6c.11,0,.18.06.22.17l3.36,9.61c.04.15-.03.24-.17.24h-1.37c-.11,0-.21-.06-.24-.17l-.69-2.12h-3.84l-.69,2.12c-.04.11-.13.17-.24.17h-1.37ZM57.85,34.03h2.89l-1.41-4.36h-.06l-1.41,4.36Z"/>
    <path class="cls-1" d="M89.28,27.82c2.21,0,3.52,1.29,3.52,3.42s-1.3,3.43-3.52,3.43h-2.06v2.96c0,.14-.07.21-.2.21h-1.29c-.13,0-.2-.07-.2-.21v-9.6c0-.14.07-.21.2-.21h3.55ZM89.09,33.1c1.36,0,1.99-.59,1.99-1.86s-.63-1.85-1.99-1.85h-1.86v3.71h1.86Z"/>
    <path class="cls-1" d="M94.54,37.84c-.15,0-.21-.08-.17-.24l3.36-9.61c.04-.11.11-.17.22-.17h1.6c.11,0,.18.06.22.17l3.36,9.61c.04.15-.03.24-.17.24h-1.37c-.11,0-.21-.06-.24-.17l-.69-2.12h-3.84l-.69,2.12c-.04.11-.13.17-.24.17h-1.37ZM97.31,34.03h2.89l-1.41-4.36h-.06l-1.42,4.36Z"/>
    <path class="cls-1" d="M111.56,37.84c-.1,0-.18-.04-.24-.14l-2.45-3.52h-1.25v3.45c0,.14-.07.21-.2.21h-1.29c-.13,0-.2-.07-.2-.21v-9.6c0-.14.07-.21.2-.21h3.25c2.3,0,3.64,1.19,3.64,3.2,0,1.54-.85,2.59-2.33,2.98l2.56,3.59c.1.15.03.25-.13.25h-1.58ZM107.62,29.37v3.29h1.77c1.3,0,1.92-.52,1.92-1.64s-.62-1.65-1.92-1.65h-1.77Z"/>
    <path class="cls-1" d="M122.86,27.82c.13,0,.21.07.21.21v1.15c0,.13-.08.2-.21.2h-2.82v8.25c0,.14-.07.21-.2.21h-1.29c-.13,0-.2-.07-.2-.21v-8.25h-2.83c-.13,0-.21-.07-.21-.2v-1.15c0-.14.08-.21.21-.21h7.33Z"/>
    <path class="cls-1" d="M126.14,37.84c-.13,0-.2-.07-.2-.21v-9.6c0-.14.07-.21.2-.21h1.42c.11,0,.2.06.25.14l2.73,4.76c.48.84,1.01,1.78,1.4,2.54h.04c-.08-1.21-.13-2.63-.13-3.81v-3.42c0-.14.07-.21.21-.21h1.26c.14,0,.21.07.21.21v9.6c0,.14-.07.21-.21.21h-1.42c-.1,0-.18-.04-.24-.14l-2.65-4.39c-.52-.84-1.11-1.93-1.5-2.76h-.04c.07,1.22.13,2.68.13,3.87v3.21c0,.14-.07.21-.2.21h-1.28Z"/>
    <path class="cls-1" d="M139.08,36.3h4.5c.14,0,.21.07.21.2v1.14c0,.14-.07.21-.21.21h-6c-.13,0-.2-.07-.2-.21v-9.6c0-.14.07-.21.2-.21h5.8c.14,0,.21.07.21.21v1.14c0,.12-.07.2-.21.2h-4.3v2.62h3.94c.14,0,.21.07.21.21v1.12c0,.14-.07.21-.21.21h-3.94v2.78Z"/>
    <path class="cls-1" d="M152.77,37.84c-.1,0-.18-.04-.24-.14l-2.45-3.52h-1.25v3.45c0,.14-.07.21-.2.21h-1.29c-.13,0-.2-.07-.2-.21v-9.6c0-.14.07-.21.2-.21h3.25c2.3,0,3.64,1.19,3.64,3.2,0,1.54-.85,2.59-2.33,2.98l2.56,3.59c.1.15.03.25-.13.25h-1.58ZM148.84,29.37v3.29h1.76c1.3,0,1.92-.52,1.92-1.64s-.62-1.65-1.92-1.65h-1.76Z"/>
    <path class="cls-1" d="M160.76,38.01c-1.4,0-2.44-.45-3.57-1.34-.1-.1-.11-.18-.04-.29l.7-.98c.07-.1.17-.11.28-.04.91.66,1.75,1.04,2.7,1.06,1.02,0,2.03-.43,2.03-1.39,0-1.01-1.05-1.26-2.27-1.51-1.47-.31-3.41-.98-3.41-3.07,0-1.95,1.72-2.79,3.74-2.79,1.21,0,2.16.34,3.29,1.11.11.07.13.18.06.28l-.67.97c-.07.11-.18.11-.29.04-.83-.53-1.65-.79-2.51-.81-1.21,0-1.91.48-1.91,1.23,0,.9.9,1.13,2.13,1.42,1.64.36,3.57.9,3.57,3.11s-1.79,3.01-3.84,3.01Z"/>
    <path class="cls-1" d="M16.65,21.47h-3.08c-.69,0-1.28-.1-1.76-.3-.48-.2-.88-.46-1.18-.78-.31-.32-.53-.69-.66-1.1-.14-.41-.2-.82-.2-1.24,0-.53.09-1.04.26-1.52.18-.48.43-.9.75-1.27.32-.36.71-.65,1.15-.86.44-.21.93-.31,1.46-.31.49,0,.93.08,1.34.25.4.16.75.4,1.04.7.29.3.51.66.66,1.07.15.41.23.87.23,1.37v4ZM14.71,19.5v-1.52c0-.65-.12-1.14-.37-1.49-.25-.35-.61-.52-1.09-.52-.19,0-.38.04-.57.13-.19.08-.35.2-.5.36-.15.15-.27.34-.36.55-.09.22-.14.46-.14.73,0,.32.05.59.15.81.1.22.24.4.41.55.17.14.37.24.59.31.22.06.45.09.69.09h1.19Z"/>
    <path class="cls-1" d="M25.69,21.47c-.03.66-.16,1.22-.39,1.69-.23.47-.53.85-.92,1.15-.39.3-.84.51-1.36.66-.52.14-1.1.21-1.72.21-.26,0-.53,0-.82-.03-.28-.02-.6-.05-.94-.11l.14-1.91c.33.04.64.08.94.1.29.02.55.03.77.03.32,0,.62-.02.9-.07.28-.05.54-.13.76-.26.22-.13.4-.31.53-.54.13-.23.2-.54.21-.93h-1.14c-.7,0-1.3-.1-1.78-.3-.48-.2-.87-.46-1.17-.78-.3-.32-.52-.69-.66-1.1-.14-.41-.2-.82-.2-1.24,0-.53.09-1.04.26-1.52.18-.48.42-.9.74-1.27.32-.36.69-.65,1.13-.86.44-.21.92-.31,1.46-.31s.97.08,1.37.25c.4.16.75.4,1.03.7.28.3.5.66.65,1.07.15.41.22.87.22,1.37v2.03h1.67c.18,0,.31.04.37.14.07.09.1.2.1.32v1.04c0,.09-.04.19-.11.31-.07.11-.2.17-.37.17h-1.67ZM23.77,19.5v-1.52c0-.65-.13-1.14-.38-1.49-.25-.35-.61-.52-1.06-.52-.2,0-.4.04-.59.13-.19.08-.35.2-.5.36-.15.15-.27.34-.36.55-.09.22-.14.46-.14.73,0,.32.05.59.15.81.1.22.24.4.41.55.17.14.37.24.59.31.22.06.45.09.69.09h1.19Z"/>
    <path class="cls-1" d="M27.27,21.47c-.17,0-.29-.04-.36-.14-.07-.09-.1-.19-.1-.31v-1c0-.12.04-.24.11-.36.07-.11.19-.17.35-.17h5.24v-1.62c0-.41-.05-.73-.16-.96-.11-.23-.25-.41-.43-.53-.18-.12-.39-.19-.64-.22-.24-.03-.5-.04-.77-.04h-2.06v-1.72l3.3-5.24,1.6,1.07-2.6,4h.17c.45,0,.9.05,1.33.15.43.1.81.28,1.13.54.32.26.58.62.78,1.07.2.45.3,1.03.3,1.72v3.74h-7.18Z"/>
    <path class="cls-1" d="M40.07,21.2c0,.51-.07.99-.2,1.43-.14.44-.34.83-.61,1.16-.27.33-.61.59-1,.77-.4.19-.86.28-1.38.28-.21,0-.41,0-.6-.03-.18-.02-.34-.04-.48-.06-.08-.01-.16-.02-.23-.03-.07-.01-.15-.03-.23-.05l.22-1.94.48.1c.14.02.28.04.43.06.15.02.28.03.41.03.5,0,.83-.16,1-.48.17-.32.26-.78.26-1.4v-6.35h1.94v6.5Z"/>
    <path class="cls-1" d="M42.64,9.28h1.94v10.21h1.16c.18,0,.31.04.37.14.07.09.1.2.1.32v1.04c0,.09-.04.19-.12.31-.08.11-.2.17-.36.17h-3.1v-12.19Z"/>
    <path class="cls-1" d="M45.67,21.47c-.18,0-.31-.04-.38-.14-.07-.09-.1-.19-.1-.31v-1c0-.12.04-.24.12-.36.08-.11.2-.17.36-.17h2.98c.26,0,.44-.07.53-.2.09-.14.14-.35.14-.63v-2.38h1.91v1.65c0,.43.11.8.32,1.11.22.31.61.46,1.19.46h.31c.26,0,.43-.08.51-.24.08-.16.12-.37.12-.65v-3h1.96v2.31c0,.45.11.83.32,1.12.21.3.61.44,1.17.44h.41c.27,0,.45-.08.54-.24.09-.16.13-.37.13-.65v-3.92h1.92v3.23c0,.45.11.83.32,1.12.21.3.6.44,1.17.44h20.9c.18,0,.31.04.37.14.07.09.1.2.1.32v1.04c0,.09-.04.19-.11.31-.07.11-.19.17-.35.17h-20.92c-.51,0-.92-.11-1.22-.34-.3-.23-.53-.49-.69-.78-.19.36-.48.64-.87.83-.39.19-.82.29-1.29.29h-.46c-.51,0-.91-.11-1.2-.34-.29-.23-.51-.48-.66-.77-.21.38-.51.65-.88.83-.38.18-.77.27-1.19.27h-.44c-.49,0-.88-.11-1.18-.34-.3-.23-.52-.48-.67-.77-.22.38-.52.65-.91.83-.39.18-.83.27-1.3.27h-2.96Z"/>
    <path class="cls-1" d="M82.42,21.47c-.17,0-.29-.04-.36-.14-.07-.09-.1-.19-.1-.31v-1c0-.12.04-.24.11-.36.07-.11.19-.17.35-.17h.66c.7,0,1.06-.53,1.06-1.6,0-.54.09-1.05.26-1.51s.42-.86.74-1.2c.32-.33.69-.59,1.12-.78.43-.19.89-.28,1.4-.28.57,0,1.06.1,1.49.29.43.19.78.46,1.06.8.28.34.48.75.62,1.22.14.48.2,1,.2,1.56,0,.44-.06.87-.18,1.29-.12.42-.31.79-.59,1.11-.27.32-.62.58-1.05.77-.42.19-.95.29-1.56.29-.25,0-.5-.01-.75-.04-.25-.03-.5-.08-.74-.17-.24-.08-.48-.2-.7-.36-.22-.15-.42-.35-.6-.59-.17.4-.41.69-.71.88-.3.19-.62.28-.96.28h-.78ZM87.63,19.6c.53,0,.93-.16,1.18-.49.25-.33.38-.73.38-1.19,0-.3-.05-.56-.14-.8-.09-.24-.21-.44-.35-.61-.14-.17-.31-.3-.49-.39-.19-.09-.38-.14-.59-.14-.22,0-.42.05-.61.14-.19.09-.36.22-.5.39-.14.17-.26.37-.34.61-.08.24-.13.51-.13.8,0,.45.12.85.37,1.18.24.33.65.5,1.22.5Z"/>
    <path class="cls-1" d="M111.88,16.1c-.15-.41-.38-.77-.66-1.07-.29-.3-.64-.53-1.04-.7-.4-.16-.85-.25-1.34-.25-.53,0-1.02.11-1.46.31-.44.21-.83.5-1.15.86-.32.36-.57.79-.75,1.27-.18.48-.26.99-.26,1.52,0,.42.07.83.2,1.24.14.41.36.77.66,1.1.31.32.7.59,1.18.78.48.2,1.07.3,1.76.3h3.08v-4c0-.5-.08-.96-.23-1.37ZM110.17,19.5h-1.19c-.24,0-.47-.03-.69-.09-.22-.06-.42-.16-.59-.31-.17-.14-.31-.32-.41-.55-.1-.22-.15-.49-.15-.81,0-.27.04-.52.14-.73.09-.22.21-.4.36-.55.15-.15.32-.27.5-.36.19-.09.38-.13.57-.13.48,0,.84.17,1.09.52.25.35.38.84.38,1.49v1.52Z"/>
    <path class="cls-1" d="M117.78,21.2c0,.51-.07.99-.2,1.43-.14.44-.34.83-.61,1.16-.27.33-.61.59-1,.77-.4.19-.86.28-1.38.28-.22,0-.41,0-.59-.03-.18-.02-.34-.04-.48-.06-.08-.01-.16-.02-.23-.03-.07-.01-.15-.03-.23-.05l.22-1.94.48.1c.14.02.28.04.43.06.15.02.28.03.41.03.5,0,.83-.16,1-.48.17-.32.25-.78.25-1.4v-6.35h1.94v6.5Z"/>
    <path class="cls-1" d="M120.35,9.28h1.94v10.21h24.13c.18,0,.31.04.38.14.07.09.1.2.1.32v1.04c0,.09-.04.19-.12.31-.08.11-.2.17-.36.17h-26.07v-12.19Z"/>
    <path class="cls-1" d="M146.33,21.47c-.17,0-23.26-.05-23.33-.14-.07-.09-.1-.19-.1-.31v-1.01c0-.13.04-.25.11-.36.07-.11,23.16-.17,23.32-.17h.66c.12,0,.25-.02.37-.06.12-.04.24-.12.33-.24.1-.12.17-.28.23-.49.06-.21.08-.48.08-.8,0-.54.09-1.04.26-1.5.18-.46.42-.85.73-1.18.31-.33.68-.59,1.12-.79.43-.19.9-.29,1.4-.29,1.1,0,1.94.35,2.53,1.05.58.7.88,1.68.88,2.94,0,.1.01.23.04.39.03.16.09.31.2.45.1.14.25.26.45.36.2.1.47.15.81.15h.61c.17,0,.29.05.37.14.07.09.11.2.11.33v1.05c0,.09-.04.2-.12.31-.08.11-.2.17-.36.17h-.66c-.48,0-.89-.12-1.25-.36-.36-.24-.62-.54-.79-.91-.2.32-.42.57-.65.76-.23.18-.46.32-.7.4-.24.09-.49.14-.75.16-.26.02-.53.03-.8.03-.65,0-1.18-.11-1.61-.34-.43-.23-.77-.53-1.05-.89-.16.33-.39.61-.68.83-.3.22-.63.33-1,.33h-.77ZM151.51,19.58c.54,0,.94-.16,1.2-.48.26-.32.38-.72.38-1.19,0-.29-.04-.56-.14-.8-.09-.24-.21-.44-.35-.61-.14-.17-.31-.3-.5-.39-.19-.09-.39-.14-.6-.14-.22,0-.42.05-.61.14-.19.09-.36.22-.5.39-.14.17-.25.37-.34.61-.08.24-.13.5-.13.8,0,.47.13.87.38,1.19.26.32.66.48,1.2.48Z"/>
    <path class="cls-1" d="M159.2,19.5c-.3-.26-.54-.59-.75-.99-.2-.4-.31-.85-.31-1.36,0-.41.07-.81.2-1.19.14-.39.35-.73.66-1.04.3-.31.68-.55,1.15-.73.47-.18,1.02-.27,1.67-.27.26,0,.54.01.85.04.31.03.65.07,1.04.13l-.24,1.94c-.28-.05-.54-.08-.77-.1-.23-.02-.45-.03-.68-.03-.61,0-1.08.14-1.41.43s-.49.66-.49,1.14c0,.33.08.62.23.88.15.26.35.47.6.64.25.17.54.3.87.39.33.09.67.14,1.02.14h1.5v1.97h-7.39c-.18,0-.3-.04-.37-.14-.06-.09-.09-.19-.09-.31v-1c0-.12.04-.24.11-.36.07-.11.19-.17.35-.17h2.25Z"/>
  </g>
  <g>
    <path class="cls-1" d="M43.22,46.07s-.07-.02-.07-.07v-3.27s.02-.07.07-.07h.44s.07.02.07.07v2.82h1.41s.07.02.07.07v.39s-.02.07-.07.07h-1.92Z"/>
    <path class="cls-1" d="M48.89,45.55h1.53s.07.02.07.07v.39s-.02.07-.07.07h-2.05s-.07-.02-.07-.07v-3.27s.02-.07.07-.07h1.98s.07.02.07.07v.39s-.02.07-.07.07h-1.47v.89h1.34s.07.02.07.07v.38s-.02.07-.07.07h-1.34v.95Z"/>
    <path class="cls-1" d="M54.95,46.13c-.7,0-1.33-.39-1.33-1.22v-1.09c0-.84.61-1.22,1.3-1.22.41,0,.83.12,1.15.32.04.03.05.07.02.1l-.24.33s-.06.04-.1.02c-.25-.15-.53-.22-.84-.22-.41,0-.72.22-.72.69v1.07c0,.47.34.68.76.68.29,0,.53-.09.67-.2v-.73h-.64s-.07-.02-.07-.07v-.37s.02-.07.07-.07h1.14s.07.02.07.07v1.34s0,.06-.02.08c-.27.29-.68.5-1.21.5Z"/>
    <path class="cls-1" d="M59.19,46.07c-.05,0-.07-.03-.06-.08l1.15-3.28s.04-.06.08-.06h.54s.06.02.08.06l1.15,3.28c.01.05,0,.08-.06.08h-.47s-.07-.02-.08-.06l-.23-.72h-1.31l-.23.72s-.04.06-.08.06h-.47ZM60.14,44.77h.98l-.48-1.49h-.02l-.48,1.49Z"/>
    <path class="cls-1" d="M65.27,46.07s-.07-.02-.07-.07v-3.27s.02-.07.07-.07h.45s.07.02.07.07v2.82h1.4s.07.02.07.07v.39s-.02.07-.07.07h-1.92Z"/>
    <path class="cls-1" d="M75.11,46.13c-.71,0-1.32-.38-1.32-1.22v-1.09c0-.84.61-1.22,1.31-1.22.37,0,.74.12,1.02.32.03.02.04.06.01.1l-.22.33s-.06.04-.1.02c-.21-.15-.47-.21-.71-.21-.46,0-.73.26-.73.68v1.07c0,.43.27.69.74.69.27,0,.57-.09.79-.25.04-.03.07-.02.1.02l.22.32s.02.07,0,.1c-.3.23-.7.35-1.1.35Z"/>
    <path class="cls-1" d="M80.58,46.13c-.85,0-1.34-.49-1.34-1.33v-.88c0-.84.5-1.32,1.34-1.32s1.34.49,1.34,1.32v.88c0,.84-.5,1.33-1.34,1.33ZM80.58,45.59c.5,0,.75-.27.75-.78v-.88c0-.52-.26-.79-.75-.79s-.75.27-.75.79v.88c0,.51.26.78.75.78Z"/>
    <path class="cls-1" d="M85.31,46.07s-.07-.02-.07-.07v-3.27s.02-.07.07-.07h.48s.07.02.09.05l.93,1.62c.16.29.34.61.48.86h.01c-.03-.41-.04-.9-.04-1.3v-1.17s.02-.07.07-.07h.43s.07.02.07.07v3.27s-.02.07-.07.07h-.48s-.06-.01-.08-.05l-.9-1.5c-.18-.29-.38-.66-.51-.94h-.01c.02.42.04.91.04,1.32v1.09s-.02.07-.07.07h-.43Z"/>
    <path class="cls-1" d="M92.33,46.13c-.48,0-.83-.15-1.22-.46-.03-.03-.04-.06-.01-.1l.24-.34s.06-.04.1-.01c.31.22.6.35.92.36.35,0,.69-.15.69-.47,0-.34-.36-.43-.77-.52-.5-.11-1.16-.34-1.16-1.05,0-.66.59-.95,1.28-.95.41,0,.74.12,1.12.38.04.02.04.06.02.09l-.23.33s-.06.04-.1.01c-.28-.18-.56-.27-.86-.28-.41,0-.65.16-.65.42,0,.31.31.39.73.48.56.12,1.22.31,1.22,1.06s-.61,1.03-1.31,1.03Z"/>
    <path class="cls-1" d="M98.14,46.13c-.78,0-1.29-.49-1.29-1.25v-2.16s.02-.07.07-.07h.44s.07.02.07.07v2.12c0,.48.26.75.71.75s.72-.27.72-.75v-2.12s.02-.07.07-.07h.45s.07.02.07.07v2.16c0,.76-.51,1.25-1.3,1.25Z"/>
    <path class="cls-1" d="M102.92,46.07s-.07-.02-.07-.07v-3.27s.02-.07.07-.07h.44s.07.02.07.07v2.82h1.41s.07.02.07.07v.39s-.02.07-.07.07h-1.92Z"/>
    <path class="cls-1" d="M109.8,42.66s.07.02.07.07v.39s-.03.07-.07.07h-.96v2.81s-.02.07-.07.07h-.44s-.07-.02-.07-.07v-2.81h-.97s-.07-.02-.07-.07v-.39s.03-.07.07-.07h2.5Z"/>
    <path class="cls-1" d="M112.39,46.07c-.05,0-.07-.03-.06-.08l1.15-3.28s.04-.06.08-.06h.54s.06.02.08.06l1.15,3.28c.01.05,0,.08-.06.08h-.47s-.07-.02-.08-.06l-.23-.72h-1.31l-.23.72s-.04.06-.08.06h-.47ZM113.34,44.77h.98l-.48-1.49h-.02l-.48,1.49Z"/>
    <path class="cls-1" d="M118.47,46.07s-.07-.02-.07-.07v-3.27s.02-.07.07-.07h.48s.07.02.09.05l.93,1.62c.16.29.34.61.48.86h.01c-.03-.41-.04-.9-.04-1.3v-1.17s.02-.07.07-.07h.43s.07.02.07.07v3.27s-.02.07-.07.07h-.48s-.06-.01-.08-.05l-.9-1.5c-.18-.29-.38-.66-.51-.94h-.01c.02.42.04.91.04,1.32v1.09s-.02.07-.07.07h-.43Z"/>
    <path class="cls-1" d="M126.66,42.66s.07.02.07.07v.39s-.03.07-.07.07h-.96v2.81s-.02.07-.07.07h-.44s-.07-.02-.07-.07v-2.81h-.96s-.07-.02-.07-.07v-.39s.03-.07.07-.07h2.5Z"/>
    <path class="cls-1" d="M130.88,46.13c-.48,0-.83-.15-1.22-.46-.03-.03-.04-.06-.01-.1l.24-.34s.06-.04.1-.01c.31.22.6.35.92.36.35,0,.69-.15.69-.47,0-.34-.36-.43-.77-.52-.5-.11-1.16-.34-1.16-1.05,0-.66.59-.95,1.28-.95.41,0,.74.12,1.12.38.04.02.04.06.02.09l-.23.33s-.06.04-.1.01c-.28-.18-.56-.27-.86-.28-.41,0-.65.16-.65.42,0,.31.31.39.73.48.56.12,1.22.31,1.22,1.06s-.61,1.03-1.31,1.03Z"/>
  </g>
  <g>
    <path class="cls-1" d="M43.32,4.68c-.26,0-.47-.04-.65-.11-.18-.07-.33-.17-.44-.29-.11-.12-.2-.26-.25-.41-.05-.15-.08-.3-.08-.46,0-.2.03-.39.1-.57.07-.18.16-.34.28-.47.12-.13.26-.24.42-.32s.35-.12.54-.12c.18,0,.35.03.5.09.15.06.28.15.38.26.11.11.19.24.25.4.06.15.09.32.09.51v.75h.45c.06,0,.1.02.13.05.03.03.04.07.04.12v.39s-.01.07-.04.11c-.03.04-.07.06-.13.06h-1.59ZM42.36,1.18c0-.1.04-.19.11-.26.07-.07.16-.11.27-.11s.2.04.27.11c.07.07.11.16.11.26s-.04.19-.11.26c-.07.07-.16.11-.27.11s-.2-.04-.27-.11-.11-.16-.11-.26ZM43.74,3.95v-.56c0-.24-.05-.42-.14-.55-.09-.13-.22-.19-.4-.19-.08,0-.15.02-.22.05-.07.03-.13.08-.19.13-.05.06-.1.13-.13.21-.03.08-.05.17-.05.27,0,.12.02.22.06.3.04.08.09.15.15.2.06.05.14.09.22.11.08.02.17.04.26.04h.44ZM43.35,1.18c0-.1.04-.19.11-.26.07-.07.16-.11.27-.11s.2.04.27.11c.07.07.11.16.11.26s-.04.19-.11.26c-.07.07-.16.11-.27.11s-.2-.04-.27-.11-.11-.16-.11-.26Z"/>
    <path class="cls-1" d="M44.87,4.68c-.07,0-.12-.02-.14-.05-.02-.03-.03-.07-.03-.11v-.37s.01-.09.04-.13c.03-.04.07-.06.13-.06h.61c.09,0,.16-.03.19-.09.03-.06.05-.14.05-.24v-1.45h.72v1.2c0,.17.04.31.12.42.08.11.23.16.44.16h.22c.07,0,.12.02.14.05.02.03.03.07.03.12v.39s-.01.07-.04.11c-.03.04-.07.06-.13.06h-.24c-.19,0-.33-.04-.45-.13-.11-.09-.2-.19-.26-.29-.07.12-.17.22-.3.3-.13.08-.28.12-.46.12h-.64ZM45.2,5.47c0-.1.04-.19.11-.26.07-.07.16-.1.27-.1s.2.03.27.1c.07.07.11.16.11.26s-.04.19-.11.26c-.07.07-.16.11-.27.11s-.2-.04-.27-.11c-.07-.07-.11-.16-.11-.26ZM46.18,5.47c0-.1.04-.19.11-.26.07-.07.16-.1.27-.1s.2.03.27.1c.07.07.11.16.11.26s-.04.19-.11.26c-.07.07-.16.11-.27.11s-.2-.04-.27-.11c-.07-.07-.11-.16-.11-.26Z"/>
    <path class="cls-1" d="M47.17,4.68c-.06,0-.1-.02-.13-.05-.03-.03-.04-.07-.04-.11v-.37s.01-.09.04-.13c.03-.04.07-.06.12-.06h.87v-1.78h.72v2.51h-1.59ZM48.02,1.18c0-.1.04-.19.11-.26.07-.07.16-.11.27-.11s.2.04.27.11c.07.07.11.16.11.26s-.04.19-.11.26c-.07.07-.16.11-.27.11s-.19-.04-.27-.11c-.07-.07-.11-.16-.11-.26Z"/>
    <path class="cls-1" d="M52.14,4.68c-.01.24-.06.45-.15.63-.08.17-.2.32-.34.43-.14.11-.31.19-.5.24-.19.05-.41.08-.64.08-.1,0-.2,0-.3,0-.1,0-.22-.02-.35-.04l.05-.71c.12.02.24.03.35.04.11,0,.2.01.28.01.12,0,.23,0,.34-.03.11-.02.2-.05.28-.1.08-.05.15-.12.2-.2.05-.09.08-.2.08-.34h-.42c-.26,0-.48-.04-.66-.11-.18-.07-.32-.17-.44-.29-.11-.12-.19-.26-.24-.41-.05-.15-.08-.3-.08-.46,0-.2.03-.39.1-.57.07-.18.16-.34.28-.47.12-.13.26-.24.42-.32s.34-.12.54-.12.36.03.51.09c.15.06.28.15.38.26.11.11.19.24.24.4.05.15.08.32.08.51v.75h.62c.07,0,.11.02.14.05.03.03.04.07.04.12v.39s-.01.07-.04.11c-.03.04-.07.06-.14.06h-.62ZM51.43,3.95v-.56c0-.24-.05-.42-.14-.55-.09-.13-.23-.19-.39-.19-.08,0-.15.02-.22.05-.07.03-.13.08-.19.13-.05.06-.1.13-.13.21-.03.08-.05.17-.05.27,0,.12.02.22.06.3.04.08.09.15.15.2.06.05.14.09.22.11.08.02.17.04.25.04h.44Z"/>
    <path class="cls-1" d="M52.72,4.68c-.06,0-.1-.02-.13-.05-.03-.03-.04-.07-.04-.11v-.37s.01-.09.04-.13c.03-.04.07-.06.12-.06h13.27v-1.78h.72v2.51h-13.99ZM65.99,1.18c0-.1.04-.19.11-.26.07-.07.16-.11.27-.11s.2.04.27.11c.07.07.11.16.11.26s-.04.19-.11.26c-.07.07-.16.11-.27.11s-.19-.04-.27-.11c-.07-.07-.11-.16-.11-.26Z"/>
    <path class="cls-1" d="M67.67.16h.72v3.79h.43c.07,0,.11.02.14.05.03.03,12.44.07,12.44.12v.39s-12.42.07-12.45.11c-.03.04-.07.06-.13.06h-1.15V.16Z"/>
    <path class="cls-1" d="M84.39,3.95h.61c.07,0,.11.02.14.05.02.03.04.07.04.12v.39s-.01.07-.04.11c-.03.04-.07.06-.13.06h-16.22c-.07,0-.11-.02-.14-.05-.02-.03-.04-.07-.04-.11v-.37s.01-.09.04-.13c.03-.04.07-.06.13-.06h13.21s-.06-.12-.1-.23c-.04-.11-.06-.25-.06-.41s.03-.34.1-.51c.07-.16.16-.31.28-.44.12-.13.27-.23.45-.31s.37-.12.58-.12c.18,0,.34.03.48.09.14.06.27.14.37.25.1.11.18.24.23.39.06.15.08.32.08.51v.78ZM82.31,1.18c0-.1.04-.19.11-.26.07-.07.16-.11.27-.11s.2.04.27.11c.07.07.11.16.11.26s-.04.19-.11.26c-.07.07-.16.11-.27.11s-.2-.04-.27-.11c-.07-.07-.11-.16-.11-.26ZM83.67,3.95v-.81c0-.06,0-.12-.03-.18-.02-.06-.05-.11-.09-.16-.04-.05-.09-.09-.16-.12-.06-.03-.14-.04-.23-.04-.08,0-.16.02-.23.05-.07.03-.14.08-.2.13s-.1.13-.14.21c-.03.08-.05.17-.05.27,0,.15.03.27.09.36.06.09.12.15.2.2.08.05.18.08.29.09h.55ZM83.3,1.18c0-.1.04-.19.11-.26.07-.07.16-.11.27-.11s.2.04.27.11c.07.07.11.16.11.26s-.04.19-.11.26c-.07.07-.16.11-.27.11s-.2-.04-.27-.11c-.07-.07-.11-.16-.11-.26Z"/>
    <path class="cls-1" d="M84.96,4.68c-.06,0-.11-.02-.13-.05-.02-.03-.03-.07-.03-.11v-.37s.01-.09.04-.13c.03-.04.07-.06.13-.06h.75V.16h.71v4.52h-1.46Z"/>
    <path class="cls-1" d="M87.46.16h.71v4.52h-.71V.16Z"/>
    <path class="cls-1" d="M91.2,4.68c-.19,0-.34-.03-.47-.08-.13-.05-.23-.12-.3-.2-.08-.08-.13-.18-.16-.3-.03-.11-.05-.23-.05-.35v-1.07h.72v.94c0,.14.02.22.07.26.05.04.12.06.23.06h2.94v-1.78h.73v2.51h-3.71ZM91.85,1.18c0-.1.04-.19.11-.26.07-.07.16-.11.27-.11s.2.04.27.11c.07.07.11.16.11.26s-.04.19-.11.26c-.07.07-.16.11-.27.11s-.2-.04-.27-.11-.11-.16-.11-.26ZM92.83,1.18c0-.1.04-.19.11-.26.07-.07.16-.11.27-.11s.2.04.27.11c.07.07.11.16.11.26s-.04.19-.11.26c-.07.07-.16.11-.27.11s-.2-.04-.27-.11-.11-.16-.11-.26Z"/>
    <path class="cls-1" d="M95.88.16h.71v4.52h-.71V.16Z"/>
    <path class="cls-1" d="M98.72,4.58c0,.19-.03.37-.08.53-.05.16-.13.31-.23.43-.1.12-.23.22-.37.29-.15.07-.32.1-.51.1-.08,0-.15,0-.22,0-.07,0-.13-.01-.18-.02-.03,0-.06,0-.08-.01-.03,0-.06-.01-.08-.02l.08-.72.18.04c.05,0,.1.02.16.02.05,0,.1,0,.15,0,.18,0,.31-.06.37-.18.06-.12.1-.29.1-.52v-2.36h.72v2.41Z"/>
    <path class="cls-1" d="M99.67.16h.72v3.79h12.83c.07,0,.11.02.14.05.02.03.04.07.04.12v.39s-.02.07-.04.11c-.03.04-.07.06-.13.06h-13.55V.16Z"/>
    <path class="cls-1" d="M113.2,4.68c-.07,0-12.52-.02-12.54-.05-.03-.03-.04-.07-.04-.11v-.37s.02-.09.04-.13c.03-.04,12.48-.06,12.54-.06h1.1c.1,0,.16-.02.2-.08.03-.05.05-.13.05-.23v-.88h.71v.61c0,.16.04.3.12.41.08.11.23.17.44.17h.11c.1,0,.16-.03.19-.09.03-.06.04-.14.04-.24v-1.11h.73v.86c0,.17.04.31.12.42.08.11.23.16.44.16h.15c.1,0,.17-.03.2-.09.03-.06.05-.14.05-.24v-1.45h.71v1.2c0,.17.04.31.12.42.08.11.22.16.43.16h.26c.07,0,.11.02.14.05.03.03.04.07.04.12v.39s-.01.07-.04.11c-.03.04-.07.06-.13.06h-.26c-.19,0-.34-.04-.45-.13-.11-.08-.2-.18-.26-.29-.07.13-.18.24-.32.31-.14.07-.3.11-.48.11h-.17c-.19,0-.34-.04-.45-.13-.11-.08-.19-.18-.24-.28-.08.14-.19.24-.33.31-.14.07-.29.1-.44.1h-.17c-.18,0-.33-.04-.44-.13-.11-.08-.2-.18-.25-.28-.08.14-.19.24-.34.31-.14.07-.31.1-.48.1h-1.1ZM115.72,1.18c0-.1.04-.19.11-.26.07-.07.16-.11.27-.11s.2.04.27.11c.07.07.11.16.11.26s-.04.19-.11.26-.16.11-.27.11-.2-.04-.27-.11c-.07-.07-.11-.16-.11-.26ZM116.21.36c0-.1.04-.19.11-.26.07-.07.16-.11.27-.11s.2.04.27.11c.08.07.11.16.11.26s-.04.19-.11.26c-.08.07-.17.11-.27.11s-.2-.04-.27-.11-.11-.16-.11-.26ZM116.7,1.18c0-.1.04-.19.11-.26.07-.07.16-.11.27-.11s.2.04.27.11c.07.07.11.16.11.26s-.04.19-.11.26-.16.11-.27.11-.2-.04-.27-.11-.11-.16-.11-.26Z"/>
    <path class="cls-1" d="M119.34,4.68c-.07,0-.12-.02-.14-.05-.02-.03-.03-.07-.03-.11v-.37s.01-.09.04-.13c.03-.04.07-.06.13-.06h.61c.09,0,.16-.03.19-.09.03-.06.05-.14.05-.24v-1.45h.72v1.2c0,.17.04.31.12.42.08.11.23.16.44.16h.22c.07,0,.12.02.14.05.02.03.03.07.03.12v.39s-.01.07-.04.11c-.03.04-.07.06-.13.06h-.24c-.19,0-.33-.04-.45-.13-.11-.09-.2-.19-.26-.29-.07.12-.17.22-.3.3-.13.08-.28.12-.46.12h-.64ZM119.76,1.18c0-.1.04-.19.11-.26.07-.07.16-.11.27-.11s.2.04.27.11c.07.07.11.16.11.26s-.04.19-.11.26c-.07.07-.16.11-.27.11s-.2-.04-.27-.11c-.07-.07-.11-.16-.11-.26ZM120.74,1.18c0-.1.04-.19.11-.26.07-.07.16-.11.27-.11s.2.04.27.11c.07.07.11.16.11.26s-.04.19-.11.26c-.07.07-.16.11-.27.11s-.2-.04-.27-.11c-.07-.07-.11-.16-.11-.26Z"/>
    <path class="cls-1" d="M121.64,4.68c-.06,0-.11-.02-.13-.05-.03-.03-.04-.07-.04-.11v-.37s.01-.09.04-.13c.03-.04.07-.06.13-.06h1.09c.1,0,.16-.03.19-.09.03-.06.04-.14.04-.24v-.87h.72v.61c0,.17.04.31.12.42.08.11.23.16.44.16h.16c.1,0,.16-.03.19-.08.03-.05.04-.14.04-.25v-1.11h.72v.86c0,.17.04.31.12.42.08.11.23.16.44.16h.37v-1.78h.71v2.51h-1.11c-.18,0-.32-.04-.43-.13-.11-.09-.19-.18-.25-.29-.07.14-.17.24-.31.31-.14.07-.29.1-.47.1h-.2c-.19,0-.34-.04-.45-.12-.11-.08-.19-.18-.25-.28-.07.13-.18.23-.31.3-.14.07-.3.1-.49.1h-1.08Z"/>
    <path class="cls-1" d="M131.78,4.68c-.17,0-.31-.04-.43-.13-.12-.09-.21-.19-.27-.29-.07.14-.18.25-.32.32-.14.07-.29.1-.45.1h-2.62v-.73h1.3V1.34h.72v2.61h.57c.1,0,.16-.03.19-.09.03-.06.04-.14.04-.24V.16h.73v3.21c0,.17.04.31.12.42.08.11.22.16.43.16h.22c.07,0,.11.02.14.05.03.03.04.07.04.12v.39s-.01.07-.04.11c-.03.04-.07.06-.14.06h-.23Z"/>
    <path class="cls-1" d="M131.98,4.68c-.06,0-.11-.02-.13-.05-.02-.03-.03-.07-.03-.11v-.37s.01-.09.04-.13.07-.06.13-.06h.75V.16h.71v4.52h-1.46Z"/>
  </g>
  <g>
    <polygon class="cls-1" points="144.22 1.84 144.22 3.23 173.94 3.23 173.94 43.7 139.64 43.7 139.64 45.09 175.34 45.09 175.34 1.84 144.22 1.84"/>
    <polygon class="cls-1" points="0 1.84 0 45.09 35.7 45.09 35.7 43.7 1.4 43.7 1.4 3.23 35.69 3.23 35.69 1.84 0 1.84"/>
    <rect class="cls-1" x="139.64" y="1.84" width="4.57" height="1.39"/>
  </g>
</svg>