<?xml version="1.0" encoding="UTF-8"?><svg id="Layer_1" xmlns="http://www.w3.org/2000/svg" viewBox="0 0 73.331978042617266 41.124265621182531"><defs><style>.cls-1{fill:#565e71;}.cls-2{fill:#496bb3;}</style></defs><path class="cls-2" d="M35.598198964020412,32.751859411152509c-3.825658872193344,0-7.058046337750056-2.735875869344454-7.058046337750056-6.894896875102859,0-3.234741798885807,2.043961250979919-5.147571283304387,4.322170537518105-6.630514412211596-1.089783071961392-1.418436633059173-2.177211892314517-3.266995046803459-2.177211892314517-5.278703101494102,0-3.165762224864011,2.671604731182015-5.57533881231393,6.101749332281543-5.57533881231393,3.400481030774245,0,5.80746788057877,2.37732333952863,5.775450058630668,5.674217382584175-.034607498724654,3.034865831834395-2.179566143928241,4.781955998465492-4.520163098226476,6.202982308368519,1.055410998404113,1.384064558634236,2.145194070370053,2.737994695852649,3.230268639101268,4.124413506159726.595390233094804-.990904529218824,1.124155145524128-1.947201558843517,1.420790848838806-2.574845054903562.13113181488734-.296635710815281.33100777688378-.363261033165145.595397057550144-.230010388466326l2.273964809181052,1.020803525469091c.298754529776488.133250644699729.363261023991072.331007785247493.264382456214662.662250995657814-.528764912429324,1.351811310709309-1.384064523670531,2.901379761962744-2.177211892314517,4.156666754079197l3.397891353997693,4.354423894626962c.23236463426656.331007785240217.066632241763728.593035996462277-.331007776876504.593035996462277h-3.395772527546796c-.23212920910737,0-.462139591760206-.064271070677933-.595390233094804-.262028211222059l-1.384064523670531-1.880576236493653c-1.453044095949735,1.416082381387241-3.333620284938661,2.538118728800328-5.743196811519738,2.538118728800328ZM35.862816845397901,29.289461475475946c1.418436597225082,0,2.443713174976438-.75877531425067,3.333620284938661-1.848558413745195l-4.156902074237223-5.409599494523718c-1.618547984389807,1.023157777144661-2.836873194457439,2.142839872885816-2.836873194457439,3.793405720920418,0,2.011708054691553,1.616193732776082,3.464752187348495,3.660154983756001,3.464752187348495ZM35.862816845397901,17.476768280370379c1.784051872829878-1.020803525472729,3.168116396496771-1.977100555096513,3.168116396496771-3.462397935676563,0-1.351811310714766-.791028542189451-2.441594410209291-2.310691300281178-2.441594410209291-1.482949749966792,0-2.505872076100786,1.089783099494525-2.505872076100786,2.441594410209291,0,1.154289595336195.758539869921151,2.308343765504105,1.648446979885193,3.462397935676563Z"/><path class="cls-1" d="M7.580388418422444,32.356345130067893c-.363261033164235,0-.494392851358498-.197521715374023-.395514281088253-.560782748540078l7.915700400573769-22.632127609325835c.101232821945814-.262263636386706.264382462893991-.395514281085525.528764925785254-.395514281085525h3.761387898165594c.264382462892172,0,.427532103841259.133250644698819.528764925785254.395514281085525l7.915694333761166,22.632127609325835c.101232819388315.363261033166054-.064506494212765.560782748540078-.395514271094726.560782748540078h-3.232387465552165c-.264382456214662,0-.494392838869317-.130896393024159-.561018159536616-.39527885591815l-1.616187812616772-4.982067390687007h-9.040090999660606l-1.616193773605119,4.982067390687007c-.098878570271154.264382462893991-.296635710814371.39527885591815-.561018173706543.39527885591815h-3.232387547210237ZM14.112024260359249,23.383114877923617h6.796018304830795l-3.331266117482301-10.260770492182928h-.133486069866194l-3.331266117482301,10.260770492182928Z"/><path class="cls-1" d="M57.897647408492048,8.767920491116456c5.21443189909769,0,8.281315476207965,3.034865831834395,8.281315476207965,8.049186470438144,0,5.083064787461808-3.066883577110275,8.083323119703891-8.281315476207965,8.083323119703891h-4.850935449940152v6.961757622619189c0,.328653533568286-.163385061990994.494157426190213-.462139591763844.494157426190213h-3.034865755165811c-.296400278162764,0-.45978534015012-.165503892621928-.45978534015012-.494157426190213V9.262313342476773c0-.328888958740208.163385061987356-.494392851360317.45978534015012-.494392851360317h8.347940796869807ZM57.435515394539834,21.205902930609227c3.200362065799709,0,4.685659408856736-1.386418810305258,4.685659408856736-4.388795969054627,0-2.968240509484531-1.485297343057027-4.352305068119676-4.685659408856736-4.352305068119676h-4.388803435987938v8.741101037174303h4.388803435987938Z"/><path class="cls-1" d="M0,0v41.124265621182531h73.331978042617266V0H0ZM69.179878433242266,36.973813961026281H4.152099609375V4.15045166015625h65.027778823867266v32.823362300870031Z"/></svg>